<svg width="56" height="56" viewBox="0 0 56 56" fill="none" xmlns="http://www.w3.org/2000/svg">
<g clip-path="url(#clip0_4_75)">
<path d="M0 0H56V56H0V0Z" fill="#0196D8"/>
<path d="M39.749 16H12V19.998L38.642 20C39.405 20 40 20.56 40 21.273V34.698C39.995 35.408 39.39 35.988 38.636 35.988H17.35C16.591 35.988 15.999 35.414 15.999 34.698V29.274C15.999 28.562 16.591 28 17.349 28L35 27.998V24.006L16.252 24C13.904 24 12 25.8 12 28V36C12 38.202 13.904 40 16.252 40H39.749C42.099 40 44 38.202 44 36V20C44 17.799 42.1 16 39.749 16Z" fill="white"/>
</g>
<defs>
<clipPath id="clip0_4_75">
<rect width="56" height="56" fill="white"/>
</clipPath>
</defs>
</svg>
