<svg width="56" height="56" viewBox="0 0 56 56" fill="none" xmlns="http://www.w3.org/2000/svg">
<g clip-path="url(#clip0_4_48)">
<path d="M0 0H56V56H0V0Z" fill="#F0F3FA"/>
<path d="M31.71 31.46C36.24 32.22 39.51 34.08 39.51 34.08L39.33 34.38C34.93 41.86 28.07 45.96 28 46C27.93 45.96 20.9 41.75 16.5 34.08C16.5 34.08 19.76 32.22 24.29 31.46C26.5047 35.9961 27.7673 40.9375 28 45.98V45.96C28.01 45.38 28.22 38.61 31.56 31.76L31.71 31.46ZM44 18.08V18.11C43.99 18.67 43.76 26.64 39.5 34.08C39.5 34.08 36.28 32.16 33.36 28.58C37.78 21.78 44 18.08 44 18.08ZM12.02 18.08C12.35 18.29 18.35 21.97 22.64 28.58C19.72 32.16 16.49 34.08 16.49 34.08L16.34 33.8C13.7346 28.9582 12.2513 23.5925 12 18.1V18.08L12.59 17.77L12.78 17.67C17.5233 15.3468 22.7191 14.0939 28 14V14.02C28 14.29 27.9 17.94 26.35 22.11C18.29 21.66 12 18.08 12 18.08H12.02ZM28 14C35.12 14 41.15 16.64 43.22 17.67L43.42 17.77L44 18.07C44 18.07 37.71 21.66 29.65 22.11C28.6821 19.5088 28.1255 16.7726 28 14Z" fill="#04B3F0"/>
</g>
<defs>
<clipPath id="clip0_4_48">
<rect width="56" height="56" fill="white"/>
</clipPath>
</defs>
</svg>
