<svg width="56" height="56" viewBox="0 0 56 56" fill="none" xmlns="http://www.w3.org/2000/svg">
<g clip-path="url(#clip0_4_92)">
<path d="M0 0H56V56H0V0Z" fill="#FF6600"/>
<path d="M13.1399 36.45C12.9399 36.4 12.6699 36.25 12.4399 36.07C10.4599 34.13 12.9799 31.87 15.9099 30.55V26.82C16.6099 27.24 16.9499 27.28 16.9999 27.36L19.2199 25.09L18.4799 23.19C25.0199 20.87 27.6599 19.99 32.9799 19.07L32.0299 18.19L33.5999 17.26C37.1799 18.48 40.5199 18.79 39.9499 21.84C40.0999 19.79 37.5899 19 33.7099 17.88L32.9899 18.34L34.4099 19.54C29.3185 20.4295 24.3181 21.7784 19.4699 23.57L20.0899 25.26L17.7799 27.59C18.1699 27.7 22.2199 29.1 26.4799 26.08C26.4999 26.05 26.5699 26.04 26.5699 25.98C26.4199 25.78 26.1499 25.57 25.7999 25.23C26.0814 25.2529 26.3551 25.3334 26.6041 25.4665C26.8531 25.5997 27.0721 25.7826 27.2475 26.0039C27.4229 26.2252 27.5508 26.4802 27.6235 26.753C27.6962 27.0259 27.712 27.3108 27.6699 27.59H27.1099C27.1699 27.23 27.0799 26.81 26.9299 26.54C25.4857 27.6575 23.7838 28.3942 21.9806 28.6825C20.1774 28.9708 18.3306 28.8015 16.6099 28.19V31.09C15.0099 31.64 12.2099 33.42 12.2299 35.13C12.3299 35.93 12.7499 36.23 13.1399 36.45Z" fill="#010101"/>
<path d="M26.43 35.7C22.91 37.54 19.56 38.99 14.33 39.2C7.57997 39.06 6.52997 34.48 9.73997 29.69C12.75 24.86 17.55 20.49 25.2 17.74C27.953 16.7083 30.8525 16.121 33.79 16C38.31 15.96 42.69 17.4 42.39 21.79C42.25 25.17 37.46 29.96 34.97 33.38C33.87 34.86 33.7 35.82 35.53 35.76C42.19 35.31 46.17 33.86 51.75 31.42C48 34.02 30.43 43.06 30.32 36.27C30.35 35.43 30.76 34.52 31.39 33.56C32.1266 32.5014 32.9281 31.4894 33.79 30.53C35.12 28.97 38.43 25.25 39.55 22.99C41.42 18.77 37.21 18.55 33.6 17.23L32.03 18.16L32.97 19.05C27.67 19.95 25.03 20.85 18.49 23.15L19.23 25.07L17.01 27.33C16.97 27.27 16.62 27.22 15.91 26.8V30.53C12.99 31.84 10.47 34.12 12.45 36.05C12.67 36.23 12.95 36.39 13.15 36.44H13.13C16.73 38.53 26.45 35.7 26.43 35.7Z" fill="white"/>
</g>
<defs>
<clipPath id="clip0_4_92">
<rect width="56" height="56" fill="white"/>
</clipPath>
</defs>
</svg>
