<svg width="56" height="56" viewBox="0 0 56 56" fill="none" xmlns="http://www.w3.org/2000/svg">
<g clip-path="url(#clip0_4_21)">
<path d="M0 0H56V56H0V0Z" fill="#F0F3FA"/>
<path d="M23.47 18.43C22.97 17.39 22.57 16.57 22.26 15.96C21.843 15.164 21.3857 14.3896 20.89 13.64C23.0288 12.6009 25.3715 12.0493 27.7493 12.0251C30.127 12.0009 32.4805 12.5046 34.64 13.5C36.29 14.28 37.78 15.32 39.11 16.62C39.16 16.67 39.16 16.71 39.11 16.75L35.37 20.52H35.32C34.1905 19.3812 32.813 18.5188 31.2952 18.0002C29.7774 17.4815 28.1603 17.3206 26.57 17.53C25.49 17.67 24.46 17.97 23.47 18.43Z" fill="#F71603"/>
<path d="M20.89 13.63C21.35 14.33 21.81 15.11 22.26 15.96C22.57 16.56 22.98 17.39 23.46 18.42C21.0349 19.5712 19.1346 21.5966 18.14 24.09C16.46 23.46 14.79 22.78 13.13 22.06C14.5824 18.3853 17.3479 15.3811 20.89 13.63Z" fill="url(#paint0_linear_4_21)"/>
<path d="M18.14 24.1C17.212 26.471 17.1623 29.0956 18 31.5C16.32 32.16 14.61 32.75 12.88 33.27C11.6164 29.6277 11.7051 25.6523 13.13 22.07C14.79 22.77 16.46 23.46 18.14 24.09V24.1Z" fill="url(#paint1_linear_4_21)"/>
<path d="M43.81 28.13C42.49 28.75 41.17 29.37 39.85 30.01C39.22 30.31 38.59 30.81 37.98 31H28V26H43.97C43.99 26 44 26.02 44 26.04L43.81 28.14V28.13Z" fill="#108CED"/>
<path d="M43.8099 28.13C43.7099 30.5 43.1899 32.72 42.2299 34.79C41.2688 36.8819 39.8708 38.7436 38.1299 40.25C37.4244 39.1966 36.6208 38.2122 35.7299 37.31L34.5699 36.15C36.0378 34.8753 37.1332 33.227 37.7399 31.38C37.7999 31.2 37.7799 31.24 37.8799 31C38.4899 30.82 39.2199 30.31 39.8499 30C41.1656 29.3675 42.4856 28.7442 43.8099 28.13Z" fill="url(#paint2_linear_4_21)"/>
<path d="M18 31.5C18.7027 33.5034 19.9919 35.2491 21.7 36.51C21.1 37.17 20.26 38.18 19.17 39.53L18.22 40.7C15.7496 38.8009 13.8925 36.2169 12.88 33.27C14.61 32.75 16.32 32.16 18 31.51V31.5Z" fill="url(#paint3_linear_4_21)"/>
<path d="M34.57 36.15L35.72 37.31C36.62 38.21 37.42 39.19 38.14 40.25C35.3744 42.5932 31.8884 43.9163 28.2646 43.9982C24.6408 44.0801 21.0986 42.9159 18.23 40.7L19.17 39.53C19.9855 38.4975 20.8325 37.4904 21.71 36.51C23.5955 37.882 25.8786 38.5986 28.21 38.55C30.541 38.4952 32.7839 37.6488 34.57 36.15Z" fill="url(#paint4_linear_4_21)"/>
<path d="M17.16 39.13C17.13 39.13 17.1 39.14 17.1 39.17C17.1 39.19 17.12 39.22 17.15 39.22C17.18 39.22 17.21 39.21 17.22 39.18C17.22 39.16 17.2 39.13 17.16 39.13Z" fill="black"/>
</g>
<defs>
<linearGradient id="paint0_linear_4_21" x1="23.9" y1="18.38" x2="20.18" y2="25.45" gradientUnits="userSpaceOnUse">
<stop stop-color="#F71603"/>
<stop offset="0.47" stop-color="#FA6702"/>
<stop offset="1" stop-color="#FFA001"/>
</linearGradient>
<linearGradient id="paint1_linear_4_21" x1="16.62" y1="23.67" x2="15.05" y2="33.26" gradientUnits="userSpaceOnUse">
<stop stop-color="#FFA001"/>
<stop offset="0.99" stop-color="#FBCC07"/>
</linearGradient>
<linearGradient id="paint2_linear_4_21" x1="36.2699" y1="37.35" x2="38.9599" y2="30.68" gradientUnits="userSpaceOnUse">
<stop stop-color="#03B58F"/>
<stop offset="1" stop-color="#108CED"/>
</linearGradient>
<linearGradient id="paint3_linear_4_21" x1="14.31" y1="33.31" x2="17.33" y2="40.68" gradientUnits="userSpaceOnUse">
<stop stop-color="#FBC205"/>
<stop offset="1" stop-color="#00BC43"/>
</linearGradient>
<linearGradient id="paint4_linear_4_21" x1="28.6" y1="40.75" x2="37.46" y2="38.61" gradientUnits="userSpaceOnUse">
<stop stop-color="#00BC43"/>
<stop offset="1" stop-color="#03B58F"/>
</linearGradient>
<clipPath id="clip0_4_21">
<rect width="56" height="56" fill="white"/>
</clipPath>
</defs>
</svg>
