<svg width="56" height="56" viewBox="0 0 56 56" fill="none" xmlns="http://www.w3.org/2000/svg">
<g clip-path="url(#clip0_4_31)">
<path d="M0 0H56V56H0V0Z" fill="#FE5300"/>
<path d="M8.37005 23.7C8.58005 23.7 8.87005 23.84 9.23005 24.1C9.39005 24.21 9.67005 24.42 10.05 24.73L10.93 25.41C13.2337 27.0578 15.8098 28.2866 18.54 29.04C21.657 29.9167 24.8823 30.3476 28.1201 30.32C31.3201 30.3 34.51 29.85 37.67 28.96C39.3772 28.4592 41.0264 27.7787 42.59 26.93C43.03 26.7 43.3501 26.68 43.5401 26.88C43.8901 27.24 43.74 27.74 43.1 28.38C41.5751 29.8577 39.7879 31.0379 37.8301 31.86C35.9701 32.68 33.96 33.26 31.8 33.63C27.5332 34.3277 23.1628 34.0299 19.03 32.76C16.9573 32.1162 14.9899 31.1729 13.19 29.96C11.362 28.7239 9.76452 27.1772 8.47005 25.39C8.27005 25.1 8.12005 24.82 8.05005 24.55C7.95005 24.18 8.01005 23.91 8.23005 23.75C8.26906 23.7168 8.31885 23.699 8.37005 23.7ZM40.37 24.47C41.22 23.7991 42.2171 23.3395 43.2793 23.1291C44.3416 22.9188 45.4385 22.9636 46.48 23.26C47.13 23.43 47.5601 23.66 47.7701 23.98C47.9701 24.29 48.0401 24.8 47.9701 25.49C47.8904 26.6029 47.5648 27.6843 47.0166 28.6562C46.4684 29.6281 45.7114 30.4661 44.8 31.11C44.6 31.25 44.4101 31.28 44.2201 31.21C44.0201 31.12 43.93 30.95 43.94 30.7C43.95 30.48 44.06 30.2 44.26 29.87C44.89 28.83 45.36 27.75 45.66 26.64C45.7 26.46 45.7301 26.27 45.7401 26.07C45.7601 25.82 45.73 25.64 45.66 25.53C45.59 25.43 45.4301 25.33 45.2001 25.26C45.0201 25.21 44.84 25.16 44.66 25.16C43.56 25.06 42.4401 25.16 41.2901 25.43C40.9301 25.51 40.6401 25.52 40.4501 25.45C40.2101 25.38 40.1 25.23 40.09 25C40.09 24.79 40.18 24.61 40.37 24.47Z" fill="white"/>
</g>
<defs>
<clipPath id="clip0_4_31">
<rect width="56" height="56" fill="white"/>
</clipPath>
</defs>
</svg>
