<svg width="56" height="56" viewBox="0 0 56 56" fill="none" xmlns="http://www.w3.org/2000/svg">
<g clip-path="url(#clip0_4_99)">
<path d="M0 0H56V56H0V0Z" fill="url(#paint0_linear_4_99)"/>
<path d="M41 32.988C40.828 33.473 40.647 33.936 40.456 34.38C40.0037 35.4013 39.4471 36.3731 38.795 37.28C37.924 38.49 37.209 39.326 36.658 39.79C35.805 40.554 34.89 40.945 33.91 40.966C33.207 40.966 32.36 40.772 31.372 40.378C30.382 39.985 29.472 39.791 28.64 39.791C27.768 39.791 26.832 39.985 25.83 40.378C24.828 40.772 24.02 40.978 23.403 40.998C22.463 41.037 21.528 40.636 20.593 39.791C19.997 39.285 19.251 38.418 18.357 37.191C17.398 35.881 16.61 34.359 15.993 32.625C15.331 30.753 15 28.94 15 27.185C15 25.175 15.447 23.441 16.342 21.988C17.0259 20.8401 17.9945 19.888 19.154 19.224C20.3092 18.5538 21.6185 18.1944 22.954 18.181C23.7 18.181 24.678 18.406 25.894 18.846C27.106 19.289 27.884 19.513 28.226 19.513C28.481 19.513 29.346 19.251 30.811 18.728C32.197 18.243 33.367 18.042 34.326 18.121C36.923 18.325 38.873 19.321 40.171 21.113C37.849 22.481 36.701 24.396 36.723 26.853C36.744 28.768 37.458 30.362 38.862 31.627C39.4871 32.2054 40.2114 32.6664 41 32.988ZM34.468 11C34.488 11.2 34.498 11.401 34.498 11.6C34.498 13.1 33.935 14.502 32.812 15.798C31.455 17.34 29.814 18.23 28.034 18.09C28.0101 17.9013 27.9981 17.7112 27.998 17.521C27.998 16.081 28.643 14.539 29.789 13.279C30.361 12.641 31.089 12.11 31.969 11.687C32.851 11.27 33.685 11.04 34.468 11Z" fill="white"/>
</g>
<defs>
<linearGradient id="paint0_linear_4_99" x1="10.418" y1="9.712" x2="68.147" y2="76.017" gradientUnits="userSpaceOnUse">
<stop stop-color="#1A1E21"/>
<stop offset="1" stop-color="#06060A"/>
</linearGradient>
<clipPath id="clip0_4_99">
<rect width="56" height="56" fill="white"/>
</clipPath>
</defs>
</svg>
