<svg width="56" height="56" viewBox="0 0 56 56" fill="none" xmlns="http://www.w3.org/2000/svg">
<g clip-path="url(#clip0_4_60)">
<path d="M0 0H56V56H0V0Z" fill="#0F238C"/>
<path d="M25 25.074C21.823 22.398 17.113 23.325 17.065 25.775C16.344 21.23 21.805 20.162 25 21.594V25.074ZM22.28 26.244C21.523 25.979 20.646 25.672 20.644 24.912C20.644 24.554 20.752 24.237 21.495 24C18.933 24.246 18.123 27.17 20.958 28.659C21.024 28.694 21.097 28.729 21.173 28.766C21.666 29.003 22.309 29.313 22.309 30.084C22.309 31.125 21.119 31.501 20.337 31.485C19.037 31.459 18.192 30.9 17 30.085V33.039C18.41 33.623 20.508 34.419 22.811 33.739C24.673 33.189 26 31.687 26 30.084C26 27.613 24.137 26.925 22.825 26.441C22.7549 26.4152 22.6849 26.3892 22.615 26.363C22.508 26.323 22.395 26.284 22.28 26.244ZM12.17 21H7.83L4 34H7.83L8.34 31.66H11.66L12.17 34H16L12.17 21ZM10 23.86L11.149 29.19H8.85L10 23.86ZM37.658 25.81L35.948 34H33.053L31.343 25.81L30.684 34H27L28.71 21H32.658L34.5 28.8L36.342 21H40.289L42 34H38.31L37.658 25.81ZM44 21H47V31H52V34H44V21Z" fill="white"/>
</g>
<defs>
<clipPath id="clip0_4_60">
<rect width="56" height="56" fill="white"/>
</clipPath>
</defs>
</svg>
