<svg width="56" height="56" viewBox="0 0 56 56" fill="none" xmlns="http://www.w3.org/2000/svg">
<g clip-path="url(#clip0_9_2)">
<path d="M0 0H56V56H0V0Z" fill="#F7931A"/>
<path d="M39.9359 24.704C40.4509 21.21 37.8059 19.347 34.1629 18.082L35.3429 13.374L32.4659 12.658L31.3179 17.25L29.0219 16.701L30.1859 12.076L27.3079 11.361L26.1269 16.086L24.2969 15.653V15.637L20.3209 14.638L19.5549 17.716C19.5549 17.716 21.6849 18.216 21.6509 18.232C22.8159 18.532 23.0159 19.297 22.9829 19.896L21.6509 25.286L21.9509 25.386L21.6349 25.319L19.7549 32.856C19.6219 33.206 19.2549 33.738 18.4409 33.521C18.4739 33.571 16.3609 33.022 16.3609 33.022L14.9309 36.3L18.6739 37.231L20.7199 37.764L19.5219 42.539L22.3999 43.254L23.5649 38.529L25.8769 39.128L24.6969 43.836L27.5739 44.552L28.7549 39.777C33.6629 40.708 37.3569 40.343 38.9049 35.9C40.1519 32.324 38.8379 30.277 36.2589 28.913C38.1389 28.497 39.5529 27.249 39.9189 24.703H39.9359V24.704ZM33.3639 33.921C32.4819 37.498 26.4599 35.551 24.5139 35.085L26.0939 28.747C28.0399 29.246 34.2959 30.194 33.3639 33.904V33.921ZM34.2459 24.654C33.4469 27.898 28.4229 26.251 26.8089 25.852L28.2389 20.112C29.8699 20.512 35.0939 21.277 34.2459 24.654Z" fill="white"/>
</g>
<defs>
<clipPath id="clip0_9_2">
<rect width="56" height="56" fill="white"/>
</clipPath>
</defs>
</svg>
