<svg width="56" height="56" viewBox="0 0 56 56" fill="none" xmlns="http://www.w3.org/2000/svg">
<g clip-path="url(#clip0_4_51)">
<path d="M0 0H56V56H0V0Z" fill="#ED1C24"/>
<path d="M44.106 33.26L43.957 33.389C43.747 33.574 43.529 33.772 43.267 33.673C43.194 33.647 43.144 33.553 43.131 33.479C43.119 32.949 43.363 32.457 43.599 31.979L43.659 31.853C44.337 30.741 45.126 29.43 46.284 28.521C46.48 28.382 46.691 28.266 46.914 28.357C46.966 28.404 47.026 28.487 47.026 28.568C47.0205 28.6085 47.008 28.6478 46.989 28.684C46.666 29.198 46.358 29.737 46.058 30.254C45.472 31.276 44.865 32.333 44.106 33.26ZM37.83 30.638C37.786 30.668 37.003 30.409 36.852 29.698C36.724 29.085 37.153 28.607 37.569 28.366C37.6598 28.2977 37.7654 28.2516 37.8772 28.2313C37.989 28.211 38.104 28.217 38.213 28.249C38.396 28.369 38.446 28.586 38.446 28.818C38.446 28.961 38.426 29.108 38.409 29.241L38.406 29.271C38.276 29.749 38.076 30.219 37.83 30.638ZM34.841 33.531C34.7671 33.4179 34.7291 33.2851 34.732 33.15C34.717 32.304 35.643 30.79 36.297 29.965H36.299C36.572 30.555 37.193 30.933 37.568 31.093C37.102 32.11 35.507 34.29 34.841 33.531ZM46.134 33.681C45.979 33.784 45.762 33.705 45.843 33.468C46.046 32.864 46.851 31.634 46.851 31.634L49.127 27.55H47.59C47.517 27.668 47.36 27.939 47.36 27.939C47.29 27.823 47.077 27.564 46.99 27.508C46.614 27.275 46.063 27.385 45.683 27.596C44.03 28.546 42.793 30.596 41.843 32.057C41.843 32.057 40.841 33.682 40.286 33.803C39.852 33.837 39.896 33.263 39.916 33.13C40.083 32.164 40.473 31.246 40.866 30.413C41.7623 29.8007 42.6101 29.1204 43.402 28.378C45.198 26.692 46.712 24.782 46.934 24.356C46.934 24.356 46.694 24.403 46.411 24.412C45.029 26.305 42.201 29.055 41.344 29.465C41.724 28.568 44.178 24.287 46.266 22.239L46.594 21.929C47.103 21.441 47.629 20.941 48.039 20.859C48.083 20.854 48.139 20.859 48.187 20.959C48.205 21.337 48.061 21.618 47.897 21.937L47.665 22.403C47.665 22.403 47.992 22.343 48.208 22.273C48.458 21.812 48.708 21.099 48.607 20.483C48.5925 20.3883 48.5488 20.3005 48.4822 20.2317C48.4156 20.1629 48.3292 20.1166 48.235 20.099C47.612 19.982 46.959 20.63 46.412 20.997L46.39 21.01C43.582 23.17 41.21 26.283 39.138 30.534C38.988 30.646 38.407 30.78 38.308 30.715C38.513 30.302 38.771 29.745 38.9 29.142C38.922 28.969 38.943 28.792 38.943 28.62C38.943 28.249 38.853 27.9 38.513 27.658C38.117 27.464 37.626 27.555 37.295 27.701C35.813 28.305 34.705 29.797 33.907 31.026C33.477 31.806 33.048 32.642 32.93 33.6C32.846 34.35 32.973 35.537 33.408 35.778C33.855 36.002 34.417 35.77 34.638 35.658C36.138 34.882 37.231 32.621 38.058 31.198C38.09 31.194 38.542 31.181 38.883 31.094C38.888 31.094 38.89 31.094 38.897 31.099C38.877 31.163 38.701 31.681 38.701 31.681C38.177 33.19 37.82 35.05 38.315 35.657C39.022 36.516 40.308 34.794 41.261 33.621C41.056 35.027 41.683 36.081 42.249 35.972C42.899 35.8 43.737 34.285 44.073 33.936C43.965 34.346 43.88 35.912 44.471 35.986C44.876 36.059 45.179 35.843 45.53 35.657C46.788 34.984 48.409 31.91 48.8 31.261H48.287C47.731 32.086 47.024 33.168 46.134 33.681ZM26.73 25.249L28.191 25.311L28.97 23.901H27.53L26.73 25.249ZM49.753 21.868C48.655 22.48 47.517 22.877 46.139 22.738C45.757 23.161 45.386 23.597 45.043 24.045C46.977 24.528 49.027 23.455 50.17 22.433C51.38 21.403 52 20.105 52 20.105C52 20.105 51.093 21.122 49.753 21.868ZM37.733 21.692C37.505 24.27 35.563 25.425 35.059 25.546C34.753 25.606 34.042 25.679 34.508 24.597C35.194 23.14 36.455 22.054 37.713 21.42C37.743 21.528 37.743 21.597 37.733 21.692ZM33.668 28.038C33.522 27.728 33.175 27.529 32.805 27.55C31.603 27.658 30.428 28.628 29.811 30.021C29.487 30.737 29.311 31.327 29.195 32.267C29.568 31.845 30.33 31.151 31.195 30.771C31.195 30.771 31.313 29.871 31.913 29.068C32.14 28.736 32.594 28.202 33.104 28.344C33.55 28.491 33.394 29.702 32.801 30.874C32.35 31.749 31.7442 32.535 31.013 33.194C30.413 33.694 29.525 34.298 28.748 33.833C28.259 33.548 28.009 32.953 28.062 32.186C28.296 30.008 29.305 28.154 30.75 26.041C32.24 24.08 33.97 22.218 36.182 21.144C36.632 20.92 37.051 20.869 37.412 21.006C37.412 21.006 35.107 21.971 34.118 24.046C33.866 24.571 33.554 25.412 33.907 26.041C34.091 26.369 34.418 26.395 34.682 26.378C35.895 26.102 37.11 24.856 37.751 23.838C38.121 23.067 38.21 22.459 38.21 21.606C38.21 21.502 38.205 21.364 38.196 21.261C38.776 20.959 39.964 21.494 39.964 21.494C40.892 21.796 42.781 23.131 43.448 23.416C43.774 23.045 44.308 22.484 44.609 22.204L44.174 21.941C43.476 21.523 42.738 21.126 42.012 20.734C40.364 19.85 39.148 20.025 38.465 20.267C38.196 20.362 37.951 20.444 37.951 20.444C37.444 19.9 36.612 19.952 36 20.099C33.797 20.719 31.626 22.368 29.433 24.994C27.821 27.05 26.821 28.827 26.288 30.581C25.878 31.763 25.654 34.256 26.657 35.287C27.509 36.162 28.64 35.972 29.438 35.657C31.168 34.821 32.821 32.263 33.595 30.189C33.782 29.573 33.99 28.702 33.668 28.038ZM14.495 26.038L14.202 26.701C14.159 26.736 14.093 26.718 14.017 26.701L13.887 26.68C13.477 26.555 13.167 26.287 13.072 25.968C12.94 25.348 13.48 24.86 13.718 24.683C13.947 24.528 14.302 24.446 14.508 24.606C14.635 24.752 14.683 24.942 14.683 25.149C14.683 25.429 14.595 25.745 14.495 26.038ZM13.87 27.283C13.87 27.283 13.857 27.323 13.85 27.335L13.19 28.391C12.791 28.913 12.294 29.568 11.673 29.883C11.489 29.943 11.235 29.983 11.105 29.823C10.83 29.499 10.972 29.051 11.087 28.689L11.127 28.559C11.457 27.68 11.981 26.904 12.491 26.184C12.499 26.1793 12.5078 26.1762 12.517 26.175C12.518 26.179 12.52 26.179 12.521 26.188C12.841 26.792 13.441 27.072 13.89 27.201C13.892 27.201 13.895 27.206 13.895 27.214C13.895 27.227 13.888 27.243 13.87 27.283ZM22.12 26.589C22.416 26.189 23.253 25.052 23.462 24.871C24.166 24.263 24.448 24.531 24.472 24.72C23.815 25.875 23.061 27.262 22.332 28.452C22.333 28.447 22.104 28.792 22.104 28.792C21.782 29.275 21.457 29.689 20.929 29.978C20.853 29.999 20.729 30.008 20.646 29.948C20.5999 29.9175 20.5633 29.8745 20.5407 29.8241C20.518 29.7736 20.5102 29.7178 20.518 29.663C20.55 29.293 20.933 28.158 22.12 26.589ZM14.81 23.968C13.899 23.381 12.07 24.502 10.604 26.425C9.26401 28.15 8.54701 30.519 9.17601 31.446C10.113 32.537 11.991 30.586 12.73 29.736L12.826 29.637C13.329 29.107 13.717 28.469 14.093 27.857L14.455 27.27C14.7114 27.2217 14.9653 27.1613 15.216 27.089C15.212 27.102 14.106 28.926 14.22 29.831C14.255 30.107 14.213 31.594 15.216 31.901C16.553 32.121 17.636 30.625 18.578 29.719L18.829 29.482L18.776 29.693C18.385 31.03 18.876 31.797 19.206 31.9C20.203 32.185 21.432 30.276 21.436 30.276C21.404 30.724 21.401 31.603 21.882 31.9C22.337 32.06 22.945 31.675 23.294 31.446C24.553 30.576 25.331 28.846 26.15 27.667H25.627C25.621 27.667 24.338 29.493 23.506 29.89C23.506 29.89 23.353 29.966 23.266 29.906C23.157 29.816 23.2 29.627 23.266 29.494L26.426 23.839H24.91C24.91 23.839 24.744 24.102 24.731 24.119C24.721 24.11 24.696 24.065 24.68 24.043C23.74 22.767 21.668 24.907 20.066 27.183C19.449 28.058 18.664 29.043 17.85 29.755C17.85 29.755 16.644 30.841 16.128 30.061C15.94 29.733 15.998 29.254 16.104 28.939C16.704 27.262 17.717 25.678 18.894 24.759C19.225 24.505 19.586 24.431 19.766 24.539C19.936 24.639 19.964 24.884 19.856 25.052C19.7322 25.0431 19.6079 25.0613 19.4919 25.1054C19.3758 25.1494 19.2708 25.2182 19.184 25.307C18.832 25.669 18.732 26.081 18.844 26.408C19.387 27.167 20.448 25.604 20.395 24.69C20.377 24.362 20.332 23.99 20.066 23.838C19.67 23.606 19.066 23.666 18.675 23.852C18.151 24.046 17.19 24.785 16.705 25.311C16.097 25.971 15.075 26.766 14.748 26.684C14.855 26.404 15.737 24.631 14.809 23.968H14.81ZM22.5 33.298C20.714 32.168 18.222 32.233 14.313 33.298C10.145 34.26 8.75601 34.876 6.93101 33.638C6.23001 33.031 5.97901 32.052 6.16601 30.642C6.60201 28.344 7.77801 26.132 9.86801 23.679C11.034 22.403 12.116 21.308 13.544 20.868C14.639 20.592 14.537 21.437 14.404 21.558C14.264 21.558 14.03 21.579 13.848 21.695C13.701 21.808 13.297 22.17 13.275 22.657C13.244 23.403 14.03 23.247 14.369 22.838C14.734 22.377 15.274 21.493 14.849 20.669C14.671 20.376 14.364 20.174 13.982 20.105C12.674 20.031 11.455 20.643 10.331 21.32C7.87301 22.998 5.90601 25.322 4.79301 27.866C4.15101 29.4 3.57101 31.599 4.44001 33.389C5.11301 34.63 6.56801 36.123 8.23501 35.985C9.40501 35.865 10.5 35 11.673 34.531C12.623 34.307 17.93 33.127 19.529 35.985C19.529 35.985 20 35 20.988 34.393C21.975 33.786 23.42 34.126 24.568 34.953C24 34.5 23.404 33.871 22.5 33.298Z" fill="white"/>
</g>
<defs>
<clipPath id="clip0_4_51">
<rect width="56" height="56" fill="white"/>
</clipPath>
</defs>
</svg>
