<svg width="56" height="56" viewBox="0 0 56 56" fill="none" xmlns="http://www.w3.org/2000/svg">
<g clip-path="url(#clip0_4_102)">
<path d="M0 0H56V56H0V0Z" fill="#C80651"/>
<path d="M18.914 29.2C18.944 29.14 18.996 29.04 19.016 28.99L20.27 26.03L21.504 29.02C21.524 29.07 21.565 29.15 21.596 29.22L21.442 29.25C21.092 29.34 20.702 29.4 20.302 29.4C19.9 29.4 19.531 29.35 19.14 29.25C19.068 29.23 18.965 29.2 18.914 29.2ZM6.158 24.5C7.556 24.5 8.543 24.97 9.16 25.5C9.9 26.13 10.27 26.96 10.27 28C10.27 28.99 9.91 29.81 9.2 30.45C8.584 31.02 7.577 31.478 6.158 31.478H5.706V24.5H6.158ZM49.328 25.54C50.027 26.2 50.366 27.03 50.366 28C50.366 28.96 50.016 29.78 49.327 30.46C48.9997 30.787 48.61 31.0449 48.181 31.2184C47.7521 31.3919 47.2926 31.4775 46.83 31.47C44.867 31.47 43.305 29.9 43.305 28C43.305 27.04 43.655 26.21 44.343 25.53C45.021 24.86 45.863 24.53 46.83 24.53C47.796 24.53 48.63 24.87 49.328 25.54ZM32.769 26.12L34.013 25.08C32.943 23.69 31.515 23 29.829 23C26.962 23 24.649 25.23 24.649 28.02C24.649 30.75 26.951 33 29.758 33C30.467 33 31.145 32.85 31.803 32.56C32.4303 32.2908 32.9913 31.8881 33.447 31.38C33.879 30.91 34.157 30.37 34.321 29.78C34.4774 29.1902 34.5365 28.5788 34.496 27.97L34.476 27.68H29.994V29H32.748C32.677 29.6 32.358 30.33 31.803 30.76C31.197 31.24 30.508 31.47 29.737 31.47C28.843 31.47 28.041 31.11 27.301 30.4C26.633 29.74 26.294 28.95 26.294 28.03C26.294 27.06 26.644 26.22 27.363 25.52C28.041 24.85 28.863 24.53 29.809 24.53C31.022 24.53 31.978 25.07 32.769 26.12ZM22.234 30.73L23.149 33H24.958L20.713 23H19.89L15.532 33H17.332L18.287 30.69C18.307 30.63 18.317 30.59 18.328 30.55C18.369 30.57 18.431 30.59 18.502 30.62C19.5924 31.0068 20.7785 31.0313 21.884 30.69C22.07 30.63 22.131 30.6 22.182 30.57C22.192 30.61 22.223 30.7 22.234 30.73ZM6.107 33C7.937 33 9.345 32.45 10.29 31.62C11.37 30.68 11.915 29.48 11.915 28.01C11.915 26.48 11.359 25.25 10.249 24.33C9.314 23.55 7.926 22.97 6.127 22.97H4V33H6.107ZM15 23H13.25V33H15V23ZM37 28.33H40.683V26.81H37V24.69H40.992V23H35.564V33H41.002V31.32H37V28.33ZM43.18 24.47C42.164 25.44 41.66 26.63 41.66 28.01C41.66 30.8 43.973 33 46.83 33C49.697 33 52 30.81 52 28.01C52 26.64 51.486 25.47 50.489 24.48C49.481 23.49 48.259 23 46.829 23C45.412 23 44.188 23.49 43.18 24.47Z" fill="white"/>
</g>
<defs>
<clipPath id="clip0_4_102">
<rect width="56" height="56" fill="white"/>
</clipPath>
</defs>
</svg>
