<svg width="56" height="56" viewBox="0 0 56 56" fill="none" xmlns="http://www.w3.org/2000/svg">
<g clip-path="url(#clip0_11_5)">
<path d="M0 0H56V56H0V0Z" fill="url(#paint0_linear_11_5)"/>
<path d="M27.92 8.28003V21.88L16.25 28.33L27.92 8.28003Z" fill="#E7F0FF"/>
<path d="M16.2501 28.33L16.1801 28.43L27.9201 35.88V21.88L16.2501 28.33Z" fill="#A5B9EE"/>
<path d="M27.92 8.27998V21.88L39.8 28.44H39.81L27.98 8.16998L27.92 8.26998V8.27998Z" fill="#A5B8F0"/>
<path d="M39.8 28.44L27.98 35.92L27.92 35.88V21.88L39.8 28.44Z" fill="#687FCB"/>
<path fill-rule="evenodd" clip-rule="evenodd" d="M27.7999 8.10001C27.8163 8.06619 27.8419 8.03767 27.8737 8.01772C27.9056 7.99777 27.9424 7.98718 27.9799 7.98718C28.0175 7.98718 28.0543 7.99777 28.0862 8.01772C28.118 8.03767 28.1436 8.06619 28.1599 8.10001L39.9699 28.33C39.9967 28.3741 40.0053 28.4267 39.9941 28.477C39.983 28.5273 39.9528 28.5714 39.9099 28.6L28.0899 36.08C28.0573 36.1015 28.019 36.113 27.9799 36.113C27.9408 36.113 27.9026 36.1015 27.8699 36.08L16.0999 28.6C16.0571 28.5714 16.0269 28.5273 16.0157 28.477C16.0046 28.4267 16.0132 28.3741 16.0399 28.33L27.7999 8.10001ZM27.7999 8.88L16.6999 27.93L27.7999 21.71V8.88ZM27.7999 22.14L16.5599 28.44L27.7899 35.58V22.14H27.7999ZM28.1699 35.58V22.14L39.4399 28.44L28.1699 35.58ZM39.2999 27.93L28.1699 21.7V8.88L39.2999 27.93Z" fill="white"/>
<path d="M28 47.82L16.09 30.55L27.99 37.81L39.9 30.55L28 47.82Z" fill="#A8B9EF"/>
<path d="M28.02 37.8H28L16.09 30.55L27.99 47.82L28.02 47.79V37.79V37.8Z" fill="#E8F1FF"/>
<path fill-rule="evenodd" clip-rule="evenodd" d="M16.04 30.81C16.0094 30.7668 15.9947 30.7143 15.9983 30.6615C16.002 30.6086 16.0238 30.5587 16.06 30.52C16.14 30.44 16.26 30.42 16.36 30.48L28 37.58L39.65 30.48C39.75 30.43 39.86 30.44 39.94 30.52C40.01 30.6 40.02 30.72 39.96 30.81L28.16 47.91C28.1416 47.9368 28.117 47.9588 28.0882 47.9739C28.0595 47.9891 28.0275 47.997 27.995 47.997C27.9625 47.997 27.9305 47.9891 27.9017 47.9739C27.873 47.9588 27.8483 47.9368 27.83 47.91L16.04 30.81ZM27.81 37.91L16.76 31.18L27.8 47.2V37.91H27.81ZM28.19 47.21V37.91L39.24 31.18L28.2 47.2L28.19 47.21Z" fill="white"/>
</g>
<defs>
<linearGradient id="paint0_linear_11_5" x1="28" y1="0" x2="28" y2="56" gradientUnits="userSpaceOnUse">
<stop stop-color="#465191"/>
<stop offset="0.36" stop-color="#32498F"/>
<stop offset="0.7" stop-color="#555E99"/>
<stop offset="1" stop-color="#4F5795"/>
</linearGradient>
<clipPath id="clip0_11_5">
<rect width="56" height="56" fill="white"/>
</clipPath>
</defs>
</svg>
