<svg width="56" height="56" viewBox="0 0 56 56" fill="none" xmlns="http://www.w3.org/2000/svg">
<g clip-path="url(#clip0_32_2)">
<path d="M0 0H56V56H0V0Z" fill="#461B87"/>
<path d="M40 35L43.922 30.5L40 26H44L46.081 28.186L48 26H51.946L48.042 30.482L52 35H48L45.92 32.796L44.011 35H40ZM40 23H35V26H40V29H35V32H40V35H32V20H40V23Z" fill="#EE6F2D"/>
<path d="M29 25.924V20H32V35H29V33.538C28.39 34.456 27.017 35 25.928 35C23.402 35 21.562 32.932 21.276 30.533H14.666C14.666 31.602 15.544 32.503 16.562 32.503C17.269 32.503 17.66 32.381 18 32H21.319C20.439 33.914 18.874 35 16.562 35C13.662 35 11.39 32.84 11.39 29.82C11.39 29.596 11.407 29.3 11.436 29H7V35H4V20H12.036V23H7V26H12.036V27.183C12.883 25.657 14.506 24.72 16.562 24.72C19.092 24.72 20.8 26.072 21.462 28.279C22.042 26.276 23.695 24.762 25.89 24.762C26.962 24.762 28.26 25.062 29 25.924ZM16.562 26.914C15.685 26.914 14.982 27.514 14.772 28.434H18.369C18.194 27.496 17.527 26.914 16.562 26.914ZM24.505 29.62C24.505 30.836 25.269 32 26.5 32C27.846 32 28.429 30.852 28.429 29.62C28.429 28.321 27.879 27.072 26.5 27.072C25.17 27.072 24.505 28.321 24.505 29.62Z" fill="white"/>
</g>
<defs>
<clipPath id="clip0_32_2">
<rect width="56" height="56" fill="white"/>
</clipPath>
</defs>
</svg>
