<svg width="56" height="56" viewBox="0 0 56 56" fill="none" xmlns="http://www.w3.org/2000/svg">
<g clip-path="url(#clip0_4_71)">
<path d="M0 0H56V56H0V0Z" fill="#00872B"/>
<path d="M51 25V25.236C51 25.236 50.744 25.338 50.744 25.638L50.746 30.678C50.7457 30.7633 50.7117 30.8451 50.6514 30.9054C50.5911 30.9658 50.5093 30.9998 50.424 31H49.434L47.255 27.562C47.255 27.562 47.301 27.846 47.301 28.204V31H46V25H46.876C47.275 25 47.566 25.165 47.776 25.494L49.599 28.366C49.599 28.366 49.54 28.189 49.54 27.716V25H51ZM28 25V30.678C27.9997 30.7633 27.9657 30.8451 27.9054 30.9054C27.8451 30.9658 27.7633 30.9998 27.678 31H26.512L24.334 27.562C24.334 27.562 24.379 27.846 24.379 28.204V31H23V25H23.954C24.354 25 24.644 25.165 24.854 25.494L26.677 28.366C26.677 28.366 26.619 28.189 26.619 27.716V25H28ZM12.897 25H11.284V27.3H10V25H8V25.236C8 25.236 8.256 25.332 8.256 25.638V31H10V28.396H11.284V31H13V25H12.897ZM18.122 25H14.527V30.463C14.527 30.775 14.823 31 15.134 31H18.122C18.2076 30.9998 18.2896 30.9656 18.3501 30.9051C18.4106 30.8446 18.4447 30.7626 18.445 30.677V30H16.243C16.1785 29.9998 16.1167 29.9739 16.0711 29.9282C16.0256 29.8825 16 29.8206 16 29.756V28.396H17.978V27.299H16V26H18.445V25.323C18.4447 25.2374 18.4106 25.1554 18.3501 25.0949C18.2896 25.0344 18.2076 25.0003 18.122 25ZM21.528 25H20V30.678C20 30.855 20.146 31 20.323 31H21.528V25ZM44.404 25H40.81V30.463C40.81 30.763 41.105 31 41.415 31H44.404C44.4896 30.9998 44.5716 30.9656 44.6321 30.9051C44.6926 30.8446 44.7267 30.7626 44.727 30.677V30H42.665C42.6006 29.9995 42.5391 29.9736 42.4938 29.9279C42.4484 29.8822 42.423 29.8204 42.423 29.756V28.396H44.26V27.299H42.423V26H44.727V25.323C44.7267 25.2374 44.6926 25.1554 44.6321 25.0949C44.5716 25.0344 44.4896 25.0003 44.404 25ZM33.049 25H29.455V30.463C29.455 30.763 29.75 31 30.061 31H33.049C33.1346 30.9998 33.2166 30.9656 33.2771 30.9051C33.3376 30.8446 33.3717 30.7626 33.372 30.677V30H31.242C31.1776 29.9995 31.1161 29.9736 31.0708 29.9279C31.0254 29.8822 31 29.8204 31 29.756V28.396H33V27.299H31V26H33.372V25.323C33.3717 25.2376 33.3378 25.1558 33.2775 25.0953C33.2172 25.0348 33.1344 25.0006 33.049 25ZM39.876 25H38.712C38.575 24.9926 38.4382 25.0185 38.3133 25.0754C38.1885 25.1324 38.0792 25.2187 37.995 25.327L36.351 27.222V25H34.738V30.678C34.738 30.855 34.883 31 35.06 31H36.351V28.279L37.772 30.503C37.986 30.836 38.196 31 38.68 31H40.006L37.742 27.46" fill="white"/>
<path d="M5.594 26.864C5.512 26.928 5.406 26.844 5.437 26.743C5.482 26.599 6.299 23.889 6.299 23.889L4.043 22.127C3.962 22.062 4.003 21.929 4.103 21.929H6.893C6.893 21.929 7.711 19.222 7.753 19.077C7.783 18.975 7.917 18.973 7.948 19.077C7.991 19.223 8.81 21.929 8.81 21.929H11.6C11.698 21.929 11.74 22.062 11.658 22.127L10.313 23.178H8.72L8.228 21.551L7.736 23.178H6.143L7.432 24.184L6.939 25.812L5.594 26.864Z" fill="#ED1C24"/>
</g>
<defs>
<clipPath id="clip0_4_71">
<rect width="56" height="56" fill="white"/>
</clipPath>
</defs>
</svg>
