<svg width="56" height="56" viewBox="0 0 56 56" fill="none" xmlns="http://www.w3.org/2000/svg">
<g clip-path="url(#clip0_4_54)">
<path d="M0 0H56V56H0V0Z" fill="#0071C5"/>
<path d="M20.07 26.266L20.065 32.289H18.204L18.209 24.552L22.304 24.582C24.108 24.582 24.722 25.837 24.722 26.888V32.289H22.86V26.966C22.86 26.526 22.303 26.292 21.46 26.292L20.07 26.266ZM33.746 26.098C33.043 26.098 32.589 26.427 32.362 26.873C32.227 27.141 32.181 27.346 32.165 27.674H35.239C35.199 26.874 34.799 26.098 33.746 26.098ZM32.165 28.863C32.165 29.819 32.729 30.607 33.896 30.607C34.805 30.607 35.021 30.377 35.546 29.902L36.816 31.004C36.003 31.734 35.4 32.289 33.896 32.289C31.928 32.289 30.304 31.279 30.304 28.434C30.304 26.004 31.674 24.552 33.834 24.552C36.026 24.552 36.817 26.079 36.817 28.189V28.863H32.165ZM28.293 32.289C26.617 32.289 25.653 31.229 25.653 30.182V22.462H27.535V24.579H29.374V26.292H27.513V29.827C27.513 30.256 27.978 30.576 28.673 30.576H29.373V32.289H28.293ZM16.348 23.722H14.488L14.482 22.009H16.343L16.348 23.722ZM16.348 32.289C14.798 32.154 14.485 31.121 14.485 30.134L14.482 24.579H16.348V32.289ZM40.56 31.981C39.012 31.845 38.677 30.991 38.677 30.006V22.009H40.56V31.981ZM47.804 22.827C45.926 14.501 27.804 13.954 16.348 20.295V20.995C27.793 15.647 44.372 15.699 45.851 23.367C46.346 25.903 45.205 28.662 42.399 30.182V32.17C45.777 31.046 48.81 27.287 47.804 22.827ZM26.98 37.394C19.073 38.058 10.834 37.014 9.68104 31.397C9.11704 28.627 10.787 25.974 12.628 24.151V23.175C9.31404 25.818 7.23304 28.88 8.26804 32.832C9.59004 37.9 16.661 40.772 27.455 39.818C31.725 39.439 37.584 38.084 41.47 36.145V33.39C37.944 35.299 31.84 36.984 26.98 37.394Z" fill="white"/>
</g>
<defs>
<clipPath id="clip0_4_54">
<rect width="56" height="56" fill="white"/>
</clipPath>
</defs>
</svg>
