<svg width="56" height="56" viewBox="0 0 56 56" fill="none" xmlns="http://www.w3.org/2000/svg">
<g clip-path="url(#clip0_4_89)">
<path d="M0 0H56V56H0V0Z" fill="#132F57"/>
<path d="M48 23.956H35.238C36.913 18.027 38.428 13 38.428 13C38.428 13 32.685 18.778 27.58 23.956H8.23801C7.92001 23.956 7.92001 24.106 8.23801 24.106C8.39801 24.106 26.622 24.931 26.622 24.931C22.634 28.908 20.481 31.159 20.402 31.235C20.242 31.385 20.402 31.46 20.561 31.31C20.641 31.235 23.514 28.757 27.58 24.931L33.881 25.006C33.481 26.732 33.164 28.308 32.685 30.184C24.948 34.086 12.346 40.464 12.346 40.464C12.186 40.54 12.266 40.69 12.426 40.614C12.506 40.54 24.231 34.987 32.445 31.084C31.09 36.862 30.213 40.838 30.213 40.914C30.133 40.988 30.293 41.064 30.373 40.914C30.373 40.838 31.568 36.862 33.324 30.708C40.661 27.183 48 23.956 48 23.956ZM28.617 23.956C32.445 20.429 35.636 17.576 35.636 17.576C35.636 17.576 35.078 20.053 34.121 23.956H28.617ZM34.919 25.007L42.575 25.157C42.575 25.157 38.747 27.107 33.562 29.733C34.042 28.083 34.439 26.658 34.919 25.007Z" fill="white"/>
</g>
<defs>
<clipPath id="clip0_4_89">
<rect width="56" height="56" fill="white"/>
</clipPath>
</defs>
</svg>
