<svg width="56" height="56" viewBox="0 0 56 56" fill="none" xmlns="http://www.w3.org/2000/svg">
<g clip-path="url(#clip0_4_34)">
<path d="M0 0H56V56H0V0Z" fill="#121425"/>
<path d="M3.54004 34.64C4.14004 34.56 4.56004 34.44 4.74004 34.28C4.94004 34.12 5.00004 33.68 5.00004 33.05V24.9C5.00004 24.26 4.93004 23.86 4.75004 23.67C4.59004 23.51 4.18004 23.39 3.54004 23.31V23H8.59004V23.32C7.99004 23.36 7.53004 23.48 7.34004 23.64C7.12004 23.84 7.00004 24.24 7.00004 24.83V33.56C7.00004 33.76 7.04004 33.92 7.12004 34.04C7.19004 34.16 7.31004 34.24 7.53004 34.24C7.64004 34.24 7.80004 34.28 7.95004 34.28H8.74004C10.24 34.28 11 34.16 11.53 33.88C12.05 33.6 12.58 32.97 13.07 31.89H13.49L12.66 35H3.54004V34.64ZM16.58 23V23.32C16.17 23.32 15.87 23.36 15.72 23.4C15.5976 23.4297 15.4891 23.5006 15.4127 23.6007C15.3363 23.7008 15.2965 23.8241 15.3 23.95C15.3 24.11 15.34 24.31 15.45 24.59C15.57 24.87 15.72 25.3 15.98 25.9L18.62 32.1L21.03 25.38C21.14 25.11 21.22 24.83 21.26 24.63C21.29 24.43 21.33 24.27 21.33 24.11C21.33 23.75 21.18 23.51 20.92 23.4C20.6546 23.3032 20.372 23.2624 20.09 23.28V23H23.55V23.32C23.22 23.36 22.95 23.48 22.76 23.64C22.4036 24.022 22.1461 24.4855 22.01 24.99L18.28 35.38H18.02L13.87 25.18C13.6735 24.6273 13.3936 24.108 13.04 23.64C12.7736 23.422 12.4439 23.2957 12.1 23.28V23H16.58ZM24.35 34.68C25.03 34.6 25.48 34.44 25.7 34.17C25.9 33.93 26 33.29 26 32.37V24.95C26 24.31 25.9 23.87 25.7 23.68C25.52 23.48 25.06 23.36 24.39 23.32V23H27.7L31.58 31.86L35.08 23H38.43V23.32C37.83 23.4 37.42 23.52 37.23 23.72C37.04 23.92 37 24.32 37 24.95V33C37 33.64 37.04 34.17 37.23 34.32C37.42 34.52 37.83 34.64 38.43 34.68V35H33.46V34.68C34.14 34.64 34.55 34.48 34.74 34.28C34.89 34.08 35 33.61 35 32.85V25.73L31.2 35H30.98L27 25.73V32.38C27 33.33 27.15 33.97 27.42 34.28C27.61 34.48 27.98 34.6 28.59 34.68V35H24.35V34.68ZM40.49 34.72C41.17 34.64 41.54 34.52 41.73 34.32C41.88 34.12 42 33.68 42 32.89V24.9C42 24.26 41.92 23.86 41.73 23.67C41.54 23.47 41.13 23.35 40.53 23.31V23H45.47V23.32C44.87 23.36 44.45 23.48 44.27 23.68C44.07 23.88 44 24.28 44 24.91V28H49V24.9C49 24.27 48.93 23.87 48.74 23.68C48.56 23.48 48.14 23.36 47.54 23.32V23H52.47V23.32C51.87 23.36 51.45 23.48 51.27 23.68C51.07 23.88 51 24.28 51 24.91V33.13C51 33.76 51.07 34.16 51.26 34.36C51.46 34.56 51.86 34.68 52.46 34.72V35H47.54V34.72C48.22 34.64 48.64 34.52 48.78 34.32C48.93 34.12 49 33.64 49 32.89V28.99H44V33.09C44 33.72 44.07 34.16 44.26 34.32C44.45 34.52 44.86 34.64 45.46 34.68V35H40.5V34.72H40.49Z" fill="white"/>
</g>
<defs>
<clipPath id="clip0_4_34">
<rect width="56" height="56" fill="white"/>
</clipPath>
</defs>
</svg>
