<svg width="56" height="56" viewBox="0 0 56 56" fill="none" xmlns="http://www.w3.org/2000/svg">
<g clip-path="url(#clip0_4_119)">
<path d="M0 0H56V56H0V0Z" fill="url(#paint0_linear_4_119)"/>
<path d="M29.033 45.106C29.033 45.331 29.12 46.385 28.833 46.598C28.759 47.124 28.386 47.375 28.199 47.851C28.187 47.914 28.174 47.964 28.174 48.039C28.15 48.052 28.137 48.064 28.112 48.077C28.075 48.064 28.038 48.052 28 48.052C27.976 47.939 27.963 47.826 27.938 47.713C27.963 47.249 28.138 46.861 28.199 46.41V46.033C28.2338 46.016 28.2722 46.0074 28.311 46.008V45.996C28.311 45.657 28.324 45.331 28.336 45.006V44.893C28.3002 44.8787 28.2624 44.8703 28.224 44.868C28.137 44.542 28.025 44.216 28.025 43.878C27.988 43.852 27.963 43.84 27.925 43.815C27.901 43.551 27.702 43.413 27.528 43.238C27.465 43.05 27.416 42.862 27.353 42.686C27.465 42.511 27.603 42.336 27.727 42.16C27.814 41.721 27.577 41.157 27.552 40.655C27.515 40.505 27.478 40.367 27.441 40.229C27.528 40.029 27.652 39.853 27.652 39.627C27.6328 39.6154 27.6119 39.6069 27.59 39.602C27.403 39.126 27.863 38.474 27.416 38.123C27.2978 37.4992 27.2725 36.8612 27.341 36.23C27.341 36.08 27.341 36.08 27.391 36.017C27.541 35.327 26.744 34.977 26.781 34.262C26.931 33.948 27.08 33.635 27.241 33.322C27.266 32.882 27.279 32.808 27.59 32.532C27.6151 32.2545 27.6525 31.9782 27.702 31.704V31.554H27.789C27.801 31.266 27.776 30.89 27.901 30.626C28.038 30.338 28.461 29.548 28.15 29.235C28.038 28.771 27.9 28.395 27.863 27.918C27.478 27.63 27.577 27.505 27.64 27.003C27.552 26.238 27.839 25.461 27.888 24.697C27.751 24.483 27.465 24.307 27.378 24.095C27.378 23.907 27.378 23.719 27.391 23.531C27.453 23.079 27.416 22.641 27.491 22.214C27.453 22.064 27.378 21.788 27.291 21.65C27.291 21.412 27.291 21.186 27.304 20.96C27.404 20.497 27.64 20.208 27.416 19.732C26.868 19.394 26.806 19.318 26.756 18.679H26.98C27.13 18.379 27.018 17.488 27.018 17.225C26.906 17.175 26.831 17.112 26.818 17.012C26.881 16.987 26.955 16.987 27.018 16.974C27.018 16.911 27.03 16.861 27.042 16.811C26.619 16.435 26.371 15.745 25.736 15.745C25.7205 15.7894 25.7121 15.836 25.711 15.883C25.624 15.858 25.537 15.821 25.45 15.796C25.388 15.783 25.338 15.771 25.276 15.771C24.99 15.708 24.729 15.595 24.442 15.621C24.405 15.658 24.405 15.658 24.33 15.658C24.23 15.683 24.131 15.695 24.044 15.72C23.895 15.77 23.796 15.783 23.708 15.921C23.733 16.147 23.733 16.147 23.771 16.259C23.858 16.473 23.858 16.473 23.895 16.686C23.82 16.748 23.745 16.799 23.659 16.861C23.572 17.212 23.709 17.501 23.746 17.826C23.273 18.102 22.962 18.102 22.663 18.604C22.502 19.218 22.563 19.857 22.514 20.497C22.639 20.497 22.775 20.509 22.912 20.522C23.024 20.635 23.024 20.71 23.037 20.872C22.962 21.023 22.962 21.023 22.9 21.374C22.788 21.537 22.688 21.713 22.576 21.888L22.464 22.038C22.265 22.29 22.303 22.741 22.253 23.054C22.278 23.092 22.29 23.129 22.315 23.18C22.837 23.418 22.365 24.27 22.502 24.684C22.701 24.972 22.701 24.972 22.775 25.148C22.838 25.687 23.062 26.176 23.285 26.69C23.435 26.915 23.795 27.266 23.733 27.567C23.708 27.617 23.683 27.667 23.671 27.717C23.609 27.805 23.559 27.906 23.497 28.007C23.447 28.119 23.447 28.119 23.36 28.207C23.236 28.445 23.236 28.445 23.124 28.808C23.012 29.009 22.874 29.198 22.837 29.435C23.248 29.774 23.173 29.937 23.074 30.425C23.024 30.89 22.874 31.128 23.224 31.441C23.31 31.479 23.397 31.529 23.422 31.617H23.46C23.484 31.805 23.447 32.294 23.348 32.394C23.323 32.457 23.298 32.507 23.285 32.569C23.235 32.719 23.198 32.858 23.161 33.009C23.049 33.472 22.875 33.973 22.788 34.412C22.688 34.776 22.688 34.776 22.614 34.902C22.551 35.452 22.364 36.054 22.651 36.581C22.713 36.995 22.85 37.371 22.875 37.772C22.813 37.96 22.738 38.148 22.675 38.336C22.688 38.586 22.701 38.85 22.701 39.113C22.501 39.64 22.464 39.627 22.676 40.166C22.676 40.743 22.601 41.307 22.526 41.884C22.589 42.586 22.589 42.586 22.701 43.426C22.701 43.764 22.825 43.99 22.974 44.303C22.95 44.554 22.887 44.755 22.775 44.98C22.775 45.118 22.85 45.194 22.813 45.319C22.39 45.181 22.639 44.517 22.613 44.229C22.539 44.065 22.365 43.865 22.34 43.789C22.278 43.714 22.228 43.639 22.166 43.551C22.141 43.489 22.103 43.438 22.091 43.401C21.83 41.959 21.618 40.492 21.307 39.051C20.897 38.449 20.872 38.198 21.195 37.659C21.183 37.584 21.183 37.509 21.183 37.446C21.096 37.446 20.797 36.856 20.797 36.844C20.835 36.506 21.009 36.004 20.86 35.678C20.524 35.415 20.35 35.302 20.213 34.914C20.523 34.487 20.773 33.874 21.058 33.384C21.083 33.259 21.121 33.134 21.158 33.021C21.121 32.281 21.058 31.529 21.046 30.789C20.884 30.689 20.747 30.589 20.598 30.501C20.748 29.749 20.772 29.047 20.798 28.269V28.232C20.548 27.267 20.225 26.289 20.001 25.336C19.827 25.336 19.479 24.32 19.317 24.145C19.429 23.681 19.429 23.681 19.541 23.405C19.641 22.54 19.877 21.775 20.125 20.973V20.798C19.902 20.334 20.325 19.707 19.976 19.343C19.951 19.18 19.939 19.005 19.926 18.855L19.727 18.654C19.479 18.516 19.192 18.391 19.143 18.09C19.23 17.927 19.391 17.751 19.391 17.563C19.267 17.563 19.056 17.074 19.056 16.911C18.856 16.798 18.856 16.798 18.72 16.686C18.023 16.41 17.165 16.259 16.43 16.122C16.182 16.122 15.535 16.009 15.348 16.209C15.174 16.259 15.088 16.272 15 16.297C15 16.122 15.36 15.959 15.485 15.871L15.746 15.758C15.746 15.733 15.746 15.733 15.759 15.72C16.182 15.695 16.48 15.658 16.841 15.457L17.277 15.344C17.476 14.855 18.347 15.081 18.769 15.094C19.155 15.069 19.429 14.868 19.789 14.717C19.789 14.63 19.864 14.63 19.939 14.605C19.964 14.58 19.976 14.58 20.001 14.567C20.125 14.454 20.262 14.429 20.424 14.417C20.574 14.204 20.624 14.015 20.884 13.965C21.071 14.304 21.134 14.429 21.432 14.655C21.693 14.743 21.693 14.743 21.73 14.78C22.925 14.855 22.925 14.855 23.074 14.893C23.273 15.131 23.41 15.344 23.684 15.131C23.708 15.106 23.721 15.106 23.746 15.094C23.7743 15.0659 23.8084 15.0444 23.846 15.031C23.92 14.981 23.994 14.931 24.082 14.893C24.231 14.855 24.368 14.793 24.542 14.78L24.579 14.63H24.716V14.53C24.7935 14.4899 24.8722 14.4522 24.952 14.417C25.064 14.128 25.637 14.354 25.823 14.354C25.923 14.341 26.023 14.329 26.134 14.329C26.1739 14.3134 26.2162 14.3049 26.259 14.304C26.371 14.154 26.408 14.028 26.595 13.99C26.706 13.765 27.565 13.702 27.851 13.664C27.913 13.627 27.988 13.602 28.063 13.564C28.1 13.527 28.1 13.527 28.174 13.527C28.199 13.502 28.212 13.502 28.237 13.489C28.2719 13.472 28.3102 13.4634 28.349 13.464C28.461 13.414 28.585 13.376 28.697 13.338C28.747 13.125 28.897 13.063 29.07 13C29.132 13 29.195 13.012 29.27 13.025C29.294 13.075 29.307 13.125 29.331 13.175C29.531 13.602 30.003 13.627 30.401 13.827C30.688 14.078 30.899 14.254 31.235 14.417C31.521 14.529 31.545 14.667 31.385 14.943V15.143C31.72 15.319 32.068 15.282 32.379 15.483C32.379 15.533 32.392 15.595 32.404 15.645C32.205 15.758 32.068 15.808 31.857 15.845C31.546 15.971 31.434 16.285 31.135 16.41C31.1116 16.6017 31.0949 16.7941 31.085 16.987C30.899 17.175 30.712 17.363 30.538 17.551C30.513 17.864 30.501 17.951 30.24 18.153C30.252 18.378 30.265 18.541 30.34 18.729C30.426 19.143 30.451 19.243 30.277 19.644C30.277 19.983 30.526 20.246 30.737 20.509C30.737 20.923 30.513 21.299 30.513 21.713C30.6 22.001 30.687 22.277 30.787 22.565C30.799 22.753 30.837 22.791 30.837 22.966C30.849 22.991 30.862 23.029 30.874 23.054V23.167C30.949 23.807 30.911 23.757 30.464 24.207C30.401 24.307 30.352 24.408 30.314 24.508C30.3951 24.6113 30.4351 24.741 30.426 24.872V25.11C30.314 25.587 30.314 25.587 30.177 25.913C30.153 25.975 30.153 26.038 30.14 26.113C30.19 26.414 30.19 26.414 30.302 26.69C30.364 27.655 31.011 28.457 30.849 29.46C30.812 29.56 30.787 29.66 30.749 29.761C30.7257 29.773 30.7008 29.7815 30.675 29.786C30.476 30.049 30.476 30.049 30.265 30.263C30.165 30.451 30.078 30.639 29.991 30.827C29.966 31.253 29.929 31.291 29.904 31.529C29.605 31.968 29.494 32.494 29.22 32.958C29.207 33.058 29.195 33.158 29.195 33.271C29.157 33.522 29.02 33.886 29.307 34.024C29.3222 34.0552 29.3304 34.0893 29.331 34.124C29.344 34.237 29.344 34.237 29.269 34.462C29.207 34.575 29.207 34.575 29.207 34.801C29.207 34.976 29.182 35.001 29.269 35.151C29.282 35.164 29.294 35.177 29.307 35.202V35.528C29.145 35.979 29.244 36.556 29.307 37.032C29.307 37.346 29.269 37.408 29.02 37.634C28.996 37.822 28.996 37.822 29.02 38.01C29.07 38.148 29.07 38.148 29.083 38.612C29.058 38.787 29.058 38.962 29.045 39.138C29.0317 39.3995 28.9983 39.6596 28.945 39.916C28.921 40.029 28.884 40.141 28.859 40.254C28.859 40.38 28.933 40.404 29.033 40.467C29.033 40.492 29.033 40.53 29.045 40.555L29.083 40.906C29.506 41.583 29.891 41.821 29.381 42.511C29.356 42.598 29.356 42.598 29.356 42.861C29.356 43.201 29.369 43.426 29.244 43.739C29.132 43.852 29.194 44.529 29.194 44.705C29.1708 44.7171 29.1458 44.7255 29.12 44.73C29.095 44.742 29.083 44.755 29.058 44.755C29.07 44.88 29.045 44.994 29.033 45.106ZM34.88 14.806C34.892 14.768 34.905 14.73 34.905 14.692C35.228 14.617 35.228 14.617 35.415 14.605C35.602 14.467 35.788 14.341 35.975 14.216C36.049 14.141 36.049 14.141 36.136 14.128C36.223 13.852 36.311 14.216 36.336 14.291C36.373 14.341 36.41 14.391 36.447 14.454C36.584 14.504 36.584 14.504 37.542 14.654C37.692 14.855 37.828 15.044 37.978 15.257C38.588 15.457 38.264 15.683 38.214 16.197C38.376 16.234 38.525 16.272 38.674 16.31C38.774 16.585 38.799 16.799 38.824 17.087C38.612 17.425 38.612 17.425 38.6 17.513C38.973 17.801 39.147 17.889 38.848 18.34C38.7898 18.4252 38.7361 18.5133 38.687 18.604C38.575 18.854 38.575 18.854 38.5 18.904V19.168C38.488 19.281 38.488 19.418 38.488 19.544C38.238 19.719 38.028 19.844 37.978 20.158V20.371C37.94 20.397 37.903 20.434 37.866 20.471C37.841 20.521 37.828 20.572 37.816 20.622C37.791 20.685 37.779 20.772 37.754 20.848C37.6802 20.9471 37.633 21.0635 37.617 21.186C37.642 21.274 37.654 21.362 37.679 21.45C37.542 21.813 37.256 22.114 37.094 22.465C37.119 22.854 37.157 22.891 37.219 23.38H37.132C37.157 23.669 37.256 24.045 37.107 24.295C37.069 24.358 37.045 24.433 37.007 24.495V24.609C37.07 24.646 37.157 24.696 37.231 24.747C37.48 24.884 37.691 25.035 37.492 25.336C37.393 25.938 37.393 25.938 37.318 26.163C37.256 26.326 37.206 26.477 37.144 26.64C37.119 26.815 37.119 27.003 37.107 27.191C37.144 27.329 37.182 27.367 37.182 27.442C37.356 27.906 37.679 28.269 37.915 28.708C38.027 28.997 38.077 29.147 38.09 29.448C38.0501 29.5176 38.0127 29.5887 37.978 29.661C37.928 29.761 37.928 29.799 37.953 29.911C38.003 29.974 38.003 29.974 38.065 30.2C37.716 31.103 37.716 31.103 37.331 31.942C37.281 32.105 37.107 32.406 37.206 32.557C37.269 32.607 37.269 32.607 37.368 32.757C37.194 32.933 37.343 33.146 37.43 33.309C37.53 33.409 37.555 33.459 37.604 33.597C37.629 33.76 37.642 33.936 37.667 34.111C37.567 34.4 37.356 34.701 37.281 34.989H37.219C37.169 35.102 37.119 35.202 37.082 35.327V35.352C37.082 35.502 37.157 35.754 37.119 35.866C37.443 36.192 37.38 36.644 37.38 37.095C37.306 37.233 37.231 37.371 37.144 37.521V37.534C37.157 37.559 37.169 37.571 37.182 37.597C37.157 37.647 37.132 37.697 37.119 37.747C37.182 37.81 37.182 37.81 37.182 37.885C37.157 37.897 37.144 37.91 37.119 37.91C37.1739 38.0187 37.2036 38.1383 37.206 38.26H37.144V38.324L37.182 39.101C37.206 39.251 37.244 39.401 37.281 39.565C37.306 39.69 37.269 39.803 37.219 39.928C37.107 40.091 36.982 40.267 36.87 40.442C36.684 40.932 36.448 41.382 36.236 41.822C36.161 41.972 36.086 42.135 36 42.298C36.025 42.736 36.025 42.736 36.112 43.2C36.012 43.35 35.925 43.489 35.838 43.652C35.7996 43.6543 35.7618 43.6628 35.726 43.677C35.576 42.448 35.576 42.448 35.526 42.31V42.285C35.502 42.273 35.502 42.26 35.489 42.26C35.514 41.796 35.552 41.32 35.577 40.856C35.714 40.718 35.689 40.304 35.689 40.129C35.4538 39.6473 35.2985 39.1305 35.229 38.599C35.763 38.399 35.739 37.922 35.776 37.434C36.024 36.92 35.526 36.581 35.576 36.067C35.726 35.817 35.876 35.553 36.036 35.315C36.049 34.951 36.062 34.588 36.062 34.225C36.137 34.149 36.099 33.848 36.099 33.723C36.124 33.698 36.137 33.698 36.161 33.685C36.049 33.095 35.987 32.105 36.323 31.605C36.323 31.466 36.223 31.378 36.149 31.265C36.124 30.94 36.124 30.626 36.112 30.313C35.9 29.887 35.577 29.373 35.714 28.859C35.664 28.319 35.9 27.718 35.974 27.179C35.701 26.979 35.602 26.615 35.464 26.326C35.191 25.988 35.191 25.988 35.179 25.913C35.166 25.536 34.929 25.261 35.017 24.91C35.042 24.884 35.079 24.847 35.129 24.834C35.129 24.596 35.129 24.371 35.141 24.144C35.241 23.831 35.328 23.681 35.179 23.368C35.116 23.368 34.955 23.104 34.917 23.054C34.855 23.004 34.644 22.741 34.805 22.704C34.917 22.578 35.85 21.725 35.527 21.512C35.291 21.337 35.291 21.174 35.403 20.91C35.514 20.56 35.564 20.371 35.453 19.995C35.453 19.845 35.577 19.18 35.514 19.08C35.514 18.855 35.489 18.767 35.577 18.566C35.664 18.428 35.664 18.428 35.677 18.328C35.651 18.303 35.614 18.303 35.602 18.29C35.465 18.215 35.402 18.177 35.378 18.04C35.353 17.99 35.353 17.952 35.34 17.914C35.29 17.902 35.253 17.889 35.216 17.889C35.2016 17.8402 35.1932 17.7898 35.191 17.739C34.818 17.626 34.507 17.488 34.146 17.363C34.121 17.375 34.084 17.388 34.071 17.4C33.723 17.639 33.101 17.538 32.84 17.2C32.64 16.962 32.38 17.062 32.143 17.062C31.932 17.062 31.708 17.087 31.496 17.024C31.521 16.949 31.807 16.711 32.255 16.222C32.554 16.122 32.778 16.109 33.101 16.109C33.35 16.059 33.599 15.821 33.822 15.708C34.457 15.708 34.706 15.459 34.88 14.806Z" fill="#00FF00"/>
</g>
<defs>
<linearGradient id="paint0_linear_4_119" x1="10.418" y1="9.712" x2="68.147" y2="76.017" gradientUnits="userSpaceOnUse">
<stop stop-color="#1A1E21"/>
<stop offset="1" stop-color="#06060A"/>
</linearGradient>
<clipPath id="clip0_4_119">
<rect width="56" height="56" fill="white"/>
</clipPath>
</defs>
</svg>
