<svg width="56" height="56" viewBox="0 0 56 56" fill="none" xmlns="http://www.w3.org/2000/svg">
<g clip-path="url(#clip0_4_105)">
<path d="M0 0H56V56H0V0Z" fill="url(#paint0_linear_4_105)"/>
<path d="M39.733 38.878C38.2369 40.4956 36.422 41.7857 34.4026 42.6673C32.3833 43.5488 30.2033 44.0026 28 44C21.59 44 16.06 40.23 13.507 34.788C21.188 35.81 30.477 37.3 39.733 38.878Z" fill="#7AC143"/>
<path d="M31.427 13.773C31.427 13.773 31.92 15.126 31.981 16.97L23.801 26.501L35.115 17.954L35.669 20.598C35.669 20.598 27.061 30.375 24.971 33.142C24.971 33.142 35.944 24.06 42.077 20.392C39.37 15.395 34.084 12 28 12C19.164 12 12 19.164 12 28.001C12 28.159 12.01 28.315 12.022 28.471C12.028 28.556 12.034 28.641 12.038 28.726C15.591 25.646 25.167 17.52 31.427 13.773ZM31.735 22.89C31.735 22.89 22.695 29.9 21.465 31.07L20.233 28.794C20.233 28.794 26.446 21.046 28.474 19.016C28.474 19.016 17.414 26.89 12.335 31.646C12.537 32.621 12.832 33.561 13.203 34.465C15.928 34.68 18.685 34.962 21.474 35.301L21.624 35.121C22.822 33.681 30.711 24.197 31.734 22.891L31.735 22.89ZM43.325 23.804C43.759 25.257 44 26.792 44 28.385C44 32.235 42.641 35.765 40.375 38.526C35.1431 37.3754 29.8676 36.433 24.561 35.701C30.859 30.625 39.631 25.766 43.325 23.804Z" fill="#0096D6"/>
</g>
<defs>
<linearGradient id="paint0_linear_4_105" x1="10.418" y1="9.712" x2="68.147" y2="76.017" gradientUnits="userSpaceOnUse">
<stop stop-color="#1A1E21"/>
<stop offset="1" stop-color="#06060A"/>
</linearGradient>
<clipPath id="clip0_4_105">
<rect width="56" height="56" fill="white"/>
</clipPath>
</defs>
</svg>
