<svg width="56" height="56" viewBox="0 0 56 56" fill="none" xmlns="http://www.w3.org/2000/svg">
<g clip-path="url(#clip0_4_8)">
<path d="M0 0H56V56H0V0Z" fill="url(#paint0_linear_4_8)"/>
<path d="M12.854 37.993C11.543 37.94 10.47 37.574 9.63101 36.894C9.39123 36.6831 9.16729 36.4548 8.96101 36.211C8.64223 35.8135 8.39674 35.3625 8.23601 34.879C7.76201 33.429 8.00601 31.525 8.93501 29.437C9.73001 27.648 10.957 25.875 13.099 23.419C13.414 23.057 14.353 22 14.359 22C14.362 22 14.31 22.09 14.246 22.2C13.689 23.152 13.213 24.273 12.953 25.243C12.537 26.8 12.587 28.136 13.101 29.173C13.455 29.886 14.063 30.504 14.746 30.846C15.943 31.444 17.694 31.493 19.833 30.991C19.98 30.956 27.277 28.979 36.049 26.598C44.821 24.217 52 22.27 52 22.272C52.002 22.274 31.62 31.172 21.04 35.789C19.365 36.52 18.917 36.705 18.129 36.987C16.115 37.708 14.312 38.053 12.853 37.993H12.854Z" fill="white"/>
</g>
<defs>
<linearGradient id="paint0_linear_4_8" x1="10.418" y1="9.712" x2="68.147" y2="76.017" gradientUnits="userSpaceOnUse">
<stop stop-color="#1A1E21"/>
<stop offset="1" stop-color="#06060A"/>
</linearGradient>
<clipPath id="clip0_4_8">
<rect width="56" height="56" fill="white"/>
</clipPath>
</defs>
</svg>
