<svg width="56" height="56" viewBox="0 0 56 56" fill="none" xmlns="http://www.w3.org/2000/svg">
<g clip-path="url(#clip0_85_2)">
<path d="M0 0H56V56H0V0Z" fill="#00AAD9"/>
<path d="M18.614 9C17.3977 8.99947 16.2309 9.4821 15.3703 10.3417C14.5097 11.2014 14.0258 12.3676 14.025 13.584C14.0254 14.1862 14.1444 14.7825 14.3753 15.3388C14.6061 15.895 14.9442 16.4003 15.3704 16.8259C15.7965 17.2515 16.3023 17.589 16.8588 17.8191C17.4154 18.0492 18.0118 18.1674 18.614 18.167C19.8302 18.1675 20.9967 17.685 21.8571 16.8256C22.7175 15.9661 23.2012 14.8001 23.202 13.584C23.2018 12.9818 23.0829 12.3855 22.8522 11.8292C22.6215 11.2729 22.2835 10.7675 21.8574 10.3418C21.4314 9.91613 20.9257 9.57855 20.3692 9.34832C19.8127 9.1181 19.2163 8.99974 18.614 9ZM22.211 17.768C22.1 17.858 21.903 18.016 21.635 18.194C20.772 18.821 19.204 19.509 16.821 18.873C14.295 18.198 13.439 15.85 13.232 15.283L13.228 15.271C13.03 14.726 12.748 14.686 12.748 15.486C12.748 17.502 13.642 18.724 13.939 19.071C14.239 19.419 14.378 19.762 14.213 19.961L14.159 20.028C13.823 20.437 13.394 20.958 13.271 21.29C13.247 21.356 13.246 21.468 13.245 21.569C13.245 21.631 13.244 21.689 13.238 21.731C13.187 22.081 12.893 22.438 12.5 22.913C12.394 23.043 12.28 23.18 12.163 23.328C11.849 23.725 12.04 24.148 12.306 24.44C12.425 24.57 12.547 24.716 12.661 24.85C12.853 25.08 13.019 25.278 13.103 25.324C13.383 25.483 13.625 25.484 13.863 25.484C14.029 25.484 14.193 25.484 14.369 25.538L14.408 25.55C14.834 25.684 15.455 25.88 15.884 26.646C16.058 26.956 16.235 27.314 16.427 27.701C16.942 28.739 17.56 29.983 18.467 31.067C19.015 31.718 19.02 32.887 19.022 33.305V33.322C19.056 36.734 17.292 39.899 16.131 41.984L16.071 42.09C15.795 42.585 15.851 42.992 16.223 42.995C16.473 42.998 16.747 42.998 17.119 42.996L18.049 42.995C18.578 42.995 18.585 42.788 18.593 42.569C18.588 42.4703 18.608 42.3719 18.651 42.283C18.691 42.216 18.764 42.2 18.845 42.182C19.009 42.146 19.208 42.102 19.244 41.631C19.252 41.511 19.262 41.406 19.325 40.95C19.717 38.13 21.095 33.931 21.951 33.389C23.215 34.214 24.731 35.583 25.181 38.369C25.318 39.221 25.399 39.979 25.318 40.704C25.23 41.491 25.162 41.862 25.091 42.086C24.854 42.841 25.047 43.003 25.409 42.989C25.409 42.989 27.108 42.991 27.349 42.989C27.865 42.989 27.862 42.781 27.859 42.574C27.858 42.474 27.856 42.374 27.915 42.298C27.958 42.242 28.021 42.218 28.084 42.193C28.209 42.143 28.332 42.095 28.292 41.801C28.039 40.512 27.575 39.325 27.112 38.136C26.69 37.058 26.269 35.979 26.003 34.821C25.607 33.098 26.645 32.009 27.526 31.748C28.915 31.335 30.817 32.018 31.061 32.156C31.093 32.174 31.121 32.19 31.146 32.206C31.296 32.294 31.336 32.318 31.488 32.19C33.058 30.897 33.785 31.527 33.825 31.565C34.007 31.737 34.13 32.648 34.139 32.831C34.329 36.573 31.027 40.188 29.677 41.667C29.524 41.8313 29.3746 41.999 29.229 42.17C28.89 42.585 29.081 43 29.419 42.998H29.815C30.355 42.998 31.218 42.998 31.44 42.992C31.929 42.976 31.922 42.784 31.916 42.59C31.912 42.492 31.909 42.393 31.969 42.315C32.011 42.26 32.072 42.245 32.139 42.227C32.245 42.2 32.364 42.169 32.439 41.97C33.019 40.42 34.217 37.444 36.708 35.433C36.925 35.258 37.129 34.821 37.313 33.829C37.373 33.506 37.446 33.258 37.527 32.983L37.567 32.843C38.969 34.663 39.14 37.919 36.767 42.201C36.517 42.647 36.673 42.995 36.957 42.995H37.195C37.632 42.999 38.502 43.005 38.819 42.995C39.331 42.977 39.32 42.754 39.309 42.525C39.3076 42.4924 39.3069 42.4597 39.307 42.427V42.419C39.307 42.296 39.307 42.092 39.751 42.092C39.915 42.092 40.097 42.095 40.231 42.097L40.398 42.099H40.516C40.793 42.102 41.398 42.107 41.635 42.081C41.943 42.046 41.973 41.731 41.979 41.318C41.985 40.705 42.019 33.717 41.985 32.858C41.976 32.64 41.975 32.288 41.975 31.848C41.971 29.875 41.964 26.127 41.201 24.758C40.09 22.764 37.863 22.95 36.823 23.036L36.807 23.037C36.465 23.067 36.06 23.109 35.604 23.157C34.224 23.304 32.374 23.5 30.368 23.507C27.086 23.52 23.653 22.45 22.546 22.105C22.413 22.063 22.313 22.032 22.252 22.015C21.3715 21.7576 20.51 21.4389 19.674 21.061C19.154 20.816 19.384 20.702 19.614 20.589L19.647 20.572C20.837 19.979 21.832 19.349 22.452 18.345C22.926 17.577 22.747 17.334 22.221 17.76L22.211 17.768ZM40.164 26.458C40.164 26.357 40.164 26.291 40.166 26.26C40.198 25.915 40.406 25.945 40.58 26.426C41.05 27.746 40.904 32.726 40.878 33.626L40.874 33.764C40.878 33.93 40.674 34.054 40.534 33.884C40.408 33.724 40.161 32.348 39.997 31.439C39.9615 31.2391 39.9248 31.0395 39.887 30.84C39.796 30.38 39.87 29.922 39.954 29.401C39.994 29.155 40.035 28.895 40.064 28.613C40.168 27.526 40.165 26.796 40.164 26.458Z" fill="#004F93"/>
<path d="M18.795 9.95801C18.3894 9.95762 17.9877 10.0371 17.6128 10.192C17.238 10.3469 16.8973 10.5741 16.6102 10.8607C16.3232 11.1473 16.0954 11.4876 15.9399 11.8622C15.7844 12.2368 15.7043 12.6384 15.704 13.044C15.7051 13.8629 16.0313 14.6479 16.6109 15.2264C17.1905 15.8049 17.9761 16.1295 18.795 16.129C19.6134 16.129 20.3983 15.804 20.9771 15.2256C21.556 14.6471 21.8815 13.8624 21.882 13.044C21.8817 12.2255 21.5564 11.4405 20.9775 10.8618C20.3986 10.2831 19.6136 9.95801 18.795 9.95801ZM27.706 24.758L27.714 24.814C27.816 25.61 27.802 26.492 27.798 26.768V26.794C27.789 27.469 28.31 27.619 28.663 27.721L28.706 27.733C29.65 28.011 31.556 27.933 32.869 27.319C33.894 26.839 33.273 25.124 33.099 24.708C32.919 24.278 32.569 24.114 32.02 24.162C31.716 24.188 30.916 24.207 30.226 24.215C29.856 24.219 29.533 24.2 29.096 24.173C28.863 24.16 28.598 24.143 28.276 24.129C27.618 24.096 27.654 24.371 27.706 24.758ZM35.73 24.384C36.258 24.967 36.571 25.927 36.637 26.341C36.704 26.753 37.262 26.594 37.331 26.208C37.434 25.634 37.251 24.686 36.829 24.178C36.635 23.943 36.302 23.839 35.913 23.913C35.547 23.983 35.447 24.069 35.73 24.383V24.384ZM27.874 30.506L27.911 30.494C28.855 30.175 30.642 29.962 33.815 30.247C35.1065 30.3503 36.3514 30.7767 37.435 31.487C37.792 31.719 38.697 32.309 39.088 30.511C39.191 30.052 39.383 29.06 39.418 28.601L39.428 28.49C39.506 27.717 39.888 23.92 37.701 23.933C37.351 23.935 37.377 24.073 37.469 24.227C37.568 24.397 37.688 24.665 37.773 25.005C38.031 26.044 37.823 26.599 37.463 26.95C37.093 27.31 36.363 27.343 36.225 26.818C35.787 25.198 35.214 23.871 33.935 24.042C33.671 24.077 33.649 24.297 33.775 24.612C33.891 24.896 34.06 25.656 34.115 26.262C34.187 27.079 33.822 27.462 33.254 27.799C32.284 28.372 29.92 28.742 28.224 28.277C27.196 27.997 27.163 27.22 27.163 26.922C27.163 26.852 27.163 26.74 27.165 26.605C27.169 26.159 27.175 25.465 27.155 25.25C27.081 24.484 26.992 24.06 26.491 24.012C26.001 23.965 26.005 24.025 26.026 24.323C26.034 24.433 26.044 24.576 26.032 24.758V24.765C26.026 24.92 25.931 27.663 23.894 27.605C23.384 27.595 23.114 27.125 23.21 26.71C23.388 25.921 23.497 25.145 23.473 24.29L23.471 24.19C23.458 23.618 23.454 23.45 22.191 23.043L22.157 23.032C21.412 22.792 21.068 22.682 20.807 22.782C20.583 22.87 20.42 23.112 20.117 23.562L20.015 23.711C19.546 24.404 18.927 25.671 18.628 26.478C18.024 28.11 18.559 29.168 18.954 29.858C19.199 30.289 19.87 30.935 20.644 31.395C22.0347 32.2123 23.3726 33.1161 24.65 34.101C24.988 34.358 25.192 34.428 25.205 33.703C25.248 31.345 27.464 30.636 27.874 30.506ZM18.924 21.651C18.554 21.449 18.124 21.214 17.697 20.965L17.595 20.905C16.187 20.085 15.462 19.662 14.92 20.098C14.34 20.565 13.902 21.201 13.822 21.424C13.792 21.505 13.779 21.628 13.764 21.764C13.737 22 13.706 22.276 13.58 22.43C13.522 22.502 13.452 22.6 13.37 22.716C13.247 22.891 13.095 23.106 12.911 23.329C12.555 23.763 12.718 23.948 13.049 24.32C13.109 24.389 13.175 24.463 13.245 24.547C13.432 24.77 13.722 24.793 14.08 24.821C14.537 24.857 15.103 24.901 15.705 25.377C16.212 25.777 16.415 26.094 17.014 27.035L17.145 27.241C17.38 27.611 17.523 27.393 17.715 26.889C17.986 26.189 18.907 24.231 19.607 23.162L19.65 23.097C19.878 22.753 20.142 22.357 19.727 22.101C19.541 21.988 19.258 21.833 18.924 21.651ZM14.679 21.893C14.239 21.147 15.847 20.937 15.924 21.167C16.001 21.397 15.119 22.64 14.679 21.893ZM23.945 26.31C24.042 25.86 24.221 25.021 24.136 24.03C24.099 23.59 24.188 23.565 24.746 23.657C25.309 23.747 25.312 23.893 25.317 24.213V24.245C25.346 25.648 24.982 26.562 24.501 26.827C24.235 26.975 23.896 26.902 23.889 26.629C23.889 26.576 23.912 26.467 23.945 26.31Z" fill="white"/>
</g>
<defs>
<clipPath id="clip0_85_2">
<rect width="56" height="56" fill="white"/>
</clipPath>
</defs>
</svg>
