<svg width="56" height="56" viewBox="0 0 56 56" fill="none" xmlns="http://www.w3.org/2000/svg">
<path d="M0 0H56V56H0V0Z" fill="#0196D8"/>
<path d="M19.7998 22C19.7998 22.8724 19.6344 23.6146 19.3037 24.2266C18.9756 24.8385 18.5277 25.306 17.96 25.6289C17.3949 25.9492 16.7594 26.1094 16.0537 26.1094C15.3428 26.1094 14.7048 25.9479 14.1396 25.625C13.5745 25.3021 13.1279 24.8346 12.7998 24.2227C12.4717 23.6107 12.3076 22.8698 12.3076 22C12.3076 21.1276 12.4717 20.3854 12.7998 19.7734C13.1279 19.1615 13.5745 18.6953 14.1396 18.375C14.7048 18.0521 15.3428 17.8906 16.0537 17.8906C16.7594 17.8906 17.3949 18.0521 17.96 18.375C18.5277 18.6953 18.9756 19.1615 19.3037 19.7734C19.6344 20.3854 19.7998 21.1276 19.7998 22ZM18.085 22C18.085 21.4349 18.0003 20.9583 17.8311 20.5703C17.6644 20.1823 17.4287 19.888 17.124 19.6875C16.8193 19.487 16.4626 19.3867 16.0537 19.3867C15.6449 19.3867 15.2881 19.487 14.9834 19.6875C14.6787 19.888 14.4417 20.1823 14.2725 20.5703C14.1058 20.9583 14.0225 21.4349 14.0225 22C14.0225 22.5651 14.1058 23.0417 14.2725 23.4297C14.4417 23.8177 14.6787 24.112 14.9834 24.3125C15.2881 24.513 15.6449 24.6133 16.0537 24.6133C16.4626 24.6133 16.8193 24.513 17.124 24.3125C17.4287 24.112 17.6644 23.8177 17.8311 23.4297C18.0003 23.0417 18.085 22.5651 18.085 22ZM24.2129 20V21.25H20.5996V20H24.2129ZM21.4199 18.5625H23.084V24.1562C23.084 24.3099 23.1074 24.4297 23.1543 24.5156C23.2012 24.599 23.2663 24.6576 23.3496 24.6914C23.4355 24.7253 23.5345 24.7422 23.6465 24.7422C23.7246 24.7422 23.8027 24.7357 23.8809 24.7227C23.959 24.707 24.0189 24.6953 24.0605 24.6875L24.3223 25.9258C24.2389 25.9518 24.1217 25.9818 23.9707 26.0156C23.8197 26.0521 23.6361 26.0742 23.4199 26.082C23.0189 26.0977 22.6673 26.0443 22.3652 25.9219C22.0658 25.7995 21.8327 25.6094 21.666 25.3516C21.4993 25.0937 21.4173 24.7682 21.4199 24.375V18.5625ZM27.0898 22.5313V26H25.4258V18H27.043V21.0586H27.1133C27.2487 20.7044 27.4674 20.4271 27.7695 20.2266C28.0716 20.0234 28.4505 19.9219 28.9063 19.9219C29.3229 19.9219 29.6862 20.013 29.9961 20.1953C30.3086 20.375 30.5508 20.6341 30.7227 20.9727C30.8971 21.3086 30.9831 21.7109 30.9805 22.1797V26H29.3164V22.4766C29.319 22.1068 29.2253 21.819 29.0352 21.6133C28.8477 21.4076 28.5846 21.3047 28.2461 21.3047C28.0195 21.3047 27.819 21.3529 27.6445 21.4492C27.4727 21.5456 27.3372 21.6862 27.2383 21.8711C27.1419 22.0534 27.0924 22.2734 27.0898 22.5313ZM35.0244 26.1172C34.4072 26.1172 33.876 25.9922 33.4307 25.7422C32.988 25.4896 32.6468 25.1328 32.4072 24.6719C32.1676 24.2083 32.0479 23.6602 32.0479 23.0273C32.0479 22.4102 32.1676 21.8685 32.4072 21.4023C32.6468 20.9362 32.984 20.5729 33.4189 20.3125C33.8564 20.0521 34.3695 19.9219 34.958 19.9219C35.3538 19.9219 35.7223 19.9857 36.0635 20.1133C36.4072 20.2383 36.7067 20.4271 36.9619 20.6797C37.2197 20.9323 37.4202 21.25 37.5635 21.6328C37.7067 22.013 37.7783 22.4583 37.7783 22.9687V23.4258H32.7119V22.3945H36.2119C36.2119 22.1549 36.1598 21.9427 36.0557 21.7578C35.9515 21.5729 35.807 21.4284 35.6221 21.3242C35.4398 21.2174 35.2275 21.1641 34.9854 21.1641C34.7327 21.1641 34.5088 21.2227 34.3135 21.3398C34.1208 21.4544 33.9697 21.6094 33.8604 21.8047C33.751 21.9974 33.695 22.2122 33.6924 22.4492V23.4297C33.6924 23.7266 33.7471 23.9831 33.8564 24.1992C33.9684 24.4154 34.126 24.582 34.3291 24.6992C34.5322 24.8164 34.7731 24.875 35.0518 24.875C35.2367 24.875 35.4059 24.849 35.5596 24.7969C35.7132 24.7448 35.8447 24.6667 35.9541 24.5625C36.0635 24.4583 36.1468 24.3307 36.2041 24.1797L37.7432 24.2812C37.665 24.651 37.5049 24.974 37.2627 25.25C37.0231 25.5234 36.7132 25.737 36.333 25.8906C35.9554 26.0417 35.5192 26.1172 35.0244 26.1172ZM38.8643 26V20H40.4775V21.0469H40.54C40.6494 20.6745 40.833 20.3932 41.0908 20.2031C41.3486 20.0104 41.6455 19.9141 41.9814 19.9141C42.0648 19.9141 42.1546 19.9193 42.251 19.9297C42.3473 19.9401 42.432 19.9544 42.5049 19.9727V21.4492C42.4268 21.4258 42.3187 21.4049 42.1807 21.3867C42.0426 21.3685 41.9163 21.3594 41.8018 21.3594C41.557 21.3594 41.3382 21.4128 41.1455 21.5195C40.9554 21.6237 40.8044 21.7695 40.6924 21.957C40.583 22.1445 40.5283 22.3607 40.5283 22.6055V26H38.8643ZM8.24658 39H6.43408L9.1958 31H11.3755L14.1333 39H12.3208L10.3169 32.8281H10.2544L8.24658 39ZM8.1333 35.8555H12.4146V37.1758H8.1333V35.8555ZM16.729 31V39H15.0649V31H16.729ZM21.2534 33V34.25H17.6401V33H21.2534ZM18.4604 31.5625H20.1245V37.1562C20.1245 37.3099 20.1479 37.4297 20.1948 37.5156C20.2417 37.599 20.3068 37.6576 20.3901 37.6914C20.4761 37.7253 20.575 37.7422 20.687 37.7422C20.7651 37.7422 20.8433 37.7357 20.9214 37.7227C20.9995 37.707 21.0594 37.6953 21.1011 37.6875L21.3628 38.9258C21.2795 38.9518 21.1623 38.9818 21.0112 39.0156C20.8602 39.0521 20.6766 39.0742 20.4604 39.082C20.0594 39.0977 19.7078 39.0443 19.4058 38.9219C19.1063 38.7995 18.8732 38.6094 18.7065 38.3516C18.5399 38.0937 18.4578 37.7682 18.4604 37.375V31.5625ZM24.9839 39.1172C24.3693 39.1172 23.8407 38.987 23.3979 38.7266C22.9578 38.4635 22.6193 38.099 22.3823 37.6328C22.1479 37.1667 22.0308 36.6302 22.0308 36.0234C22.0308 35.4089 22.1493 34.8698 22.3862 34.4062C22.6258 33.9401 22.9657 33.5768 23.4058 33.3164C23.8459 33.0534 24.3693 32.9219 24.9761 32.9219C25.4995 32.9219 25.9578 33.0169 26.3511 33.207C26.7443 33.3971 27.0555 33.6641 27.2847 34.0078C27.5138 34.3516 27.6401 34.7552 27.6636 35.2188H26.0933C26.049 34.9193 25.9318 34.6784 25.7417 34.4961C25.5542 34.3112 25.3081 34.2187 25.0034 34.2187C24.7456 34.2187 24.5203 34.2891 24.3276 34.4297C24.1375 34.5677 23.9891 34.7695 23.8823 35.0352C23.7756 35.3008 23.7222 35.6224 23.7222 36C23.7222 36.3828 23.7743 36.7083 23.8784 36.9766C23.9852 37.2448 24.1349 37.4492 24.3276 37.5898C24.5203 37.7305 24.7456 37.8008 25.0034 37.8008C25.1935 37.8008 25.3641 37.7617 25.5151 37.6836C25.6688 37.6055 25.7951 37.4922 25.894 37.3437C25.9956 37.1927 26.062 37.0117 26.0933 36.8008H27.6636C27.6375 37.2591 27.5125 37.6628 27.2886 38.0117C27.0672 38.3581 26.7612 38.6289 26.3706 38.8242C25.98 39.0195 25.5177 39.1172 24.9839 39.1172ZM31.4399 39.1172C30.8332 39.1172 30.3084 38.9883 29.8657 38.7305C29.4256 38.4701 29.0858 38.1081 28.8462 37.6445C28.6066 37.1784 28.4868 36.638 28.4868 36.0234C28.4868 35.4036 28.6066 34.862 28.8462 34.3984C29.0858 33.9323 29.4256 33.5703 29.8657 33.3125C30.3084 33.0521 30.8332 32.9219 31.4399 32.9219C32.0467 32.9219 32.5701 33.0521 33.0103 33.3125C33.453 33.5703 33.7941 33.9323 34.0337 34.3984C34.2733 34.862 34.3931 35.4036 34.3931 36.0234C34.3931 36.638 34.2733 37.1784 34.0337 37.6445C33.7941 38.1081 33.453 38.4701 33.0103 38.7305C32.5701 38.9883 32.0467 39.1172 31.4399 39.1172ZM31.4478 37.8281C31.7238 37.8281 31.9543 37.75 32.1392 37.5938C32.3241 37.4349 32.4634 37.2187 32.5571 36.9453C32.6535 36.6719 32.7017 36.3607 32.7017 36.0117C32.7017 35.6628 32.6535 35.3516 32.5571 35.0781C32.4634 34.8047 32.3241 34.5885 32.1392 34.4297C31.9543 34.2708 31.7238 34.1914 31.4478 34.1914C31.1691 34.1914 30.9347 34.2708 30.7446 34.4297C30.5571 34.5885 30.4152 34.8047 30.3188 35.0781C30.2251 35.3516 30.1782 35.6628 30.1782 36.0117C30.1782 36.3607 30.2251 36.6719 30.3188 36.9453C30.4152 37.2187 30.5571 37.4349 30.7446 37.5938C30.9347 37.75 31.1691 37.8281 31.4478 37.8281ZM35.4751 39V33H37.1392V39H35.4751ZM36.311 32.2266C36.0636 32.2266 35.8514 32.1445 35.6743 31.9805C35.4998 31.8138 35.4126 31.6146 35.4126 31.3828C35.4126 31.1536 35.4998 30.957 35.6743 30.793C35.8514 30.6263 36.0636 30.543 36.311 30.543C36.5584 30.543 36.7694 30.6263 36.9438 30.793C37.1209 30.957 37.2095 31.1536 37.2095 31.3828C37.2095 31.6146 37.1209 31.8138 36.9438 31.9805C36.7694 32.1445 36.5584 32.2266 36.311 32.2266ZM40.1362 35.5313V39H38.4722V33H40.0581V34.0586H40.1284C40.2612 33.7096 40.4839 33.4336 40.7964 33.2305C41.1089 33.0247 41.4878 32.9219 41.9331 32.9219C42.3498 32.9219 42.7131 33.013 43.0229 33.1953C43.3328 33.3776 43.5737 33.638 43.7456 33.9766C43.9175 34.3125 44.0034 34.7135 44.0034 35.1797V39H42.3394V35.4766C42.342 35.1094 42.2482 34.8229 42.0581 34.6172C41.868 34.4089 41.6063 34.3047 41.2729 34.3047C41.049 34.3047 40.8511 34.3529 40.6792 34.4492C40.5099 34.5456 40.3771 34.6862 40.2808 34.8711C40.187 35.0534 40.1388 35.2734 40.1362 35.5313ZM50.3071 34.7109L48.7837 34.8047C48.7576 34.6745 48.7017 34.5573 48.6157 34.4531C48.5298 34.3464 48.4165 34.2617 48.2759 34.1992C48.1379 34.1341 47.9725 34.1016 47.7798 34.1016C47.522 34.1016 47.3045 34.1562 47.1274 34.2656C46.9504 34.3724 46.8618 34.5156 46.8618 34.6953C46.8618 34.8385 46.9191 34.9596 47.0337 35.0586C47.1483 35.1576 47.3449 35.237 47.6235 35.2969L48.7095 35.5156C49.2928 35.6354 49.7277 35.8281 50.0142 36.0937C50.3006 36.3594 50.4438 36.7083 50.4438 37.1406C50.4438 37.5339 50.328 37.8789 50.0962 38.1758C49.867 38.4727 49.5519 38.7044 49.1509 38.8711C48.7524 39.0352 48.2928 39.1172 47.772 39.1172C46.9777 39.1172 46.3449 38.9518 45.8735 38.6211C45.4048 38.2878 45.13 37.8346 45.0493 37.2617L46.686 37.1758C46.7355 37.418 46.8553 37.6029 47.0454 37.7305C47.2355 37.8555 47.479 37.918 47.7759 37.918C48.0675 37.918 48.3019 37.862 48.479 37.75C48.6587 37.6354 48.7498 37.4883 48.7524 37.3086C48.7498 37.1576 48.686 37.0339 48.561 36.9375C48.436 36.8385 48.2433 36.763 47.9829 36.7109L46.9438 36.5039C46.3579 36.3867 45.9217 36.1836 45.6353 35.8945C45.3514 35.6055 45.2095 35.237 45.2095 34.7891C45.2095 34.4036 45.3136 34.0716 45.522 33.793C45.7329 33.5143 46.0285 33.2995 46.4087 33.1484C46.7915 32.9974 47.2394 32.9219 47.7524 32.9219C48.5103 32.9219 49.1066 33.082 49.5415 33.4023C49.979 33.7227 50.2342 34.1589 50.3071 34.7109Z" fill="white"/>
</svg>
