<svg width="56" height="56" viewBox="0 0 56 56" fill="none" xmlns="http://www.w3.org/2000/svg">
<g clip-path="url(#clip0_4_57)">
<path d="M0 0H56V56H0V0Z" fill="#048E4C"/>
<path d="M12 14C12 13.4696 12.2107 12.9609 12.5858 12.5858C12.9609 12.2107 13.4696 12 14 12H42C42.5304 12 43.0391 12.2107 43.4142 12.5858C43.7893 12.9609 44 13.4696 44 14V42C44 42.5304 43.7893 43.0391 43.4142 43.4142C43.0391 43.7893 42.5304 44 42 44H28C27.4696 44 26.9609 43.7893 26.5858 43.4142C26.2107 43.0391 26 42.5304 26 42V38C26 37.4696 26.2107 36.9609 26.5858 36.5858C26.9609 36.2107 27.4696 36 28 36H34C34.5304 36 35.0391 35.7893 35.4142 35.4142C35.7893 35.0391 36 34.5304 36 34V22C36 21.4696 35.7893 20.9609 35.4142 20.5858C35.0391 20.2107 34.5304 20 34 20H22C21.4696 20 20.9609 20.2107 20.5858 20.5858C20.2107 20.9609 20 21.4696 20 22V42C20 42.5304 19.7893 43.0391 19.4142 43.4142C19.0391 43.7893 18.5304 44 18 44H14C13.4696 44 12.9609 43.7893 12.5858 43.4142C12.2107 43.0391 12 42.5304 12 42V14Z" fill="white"/>
</g>
<defs>
<clipPath id="clip0_4_57">
<rect width="56" height="56" fill="white"/>
</clipPath>
</defs>
</svg>
