<svg width="56" height="56" viewBox="0 0 56 56" fill="none" xmlns="http://www.w3.org/2000/svg">
<g clip-path="url(#clip0_4_66)">
<path d="M0 0H56V56H0V0Z" fill="#F0F3FA"/>
<path d="M39.59 18.28C39.59 22.74 35.46 28 29.21 28H23.18L22.88 29.86L21.48 38.8H14L18.5 10H30.63C34.71 10 37.93 12.27 39.1 15.42C39.45 16.33 39.61 17.3 39.59 18.28Z" fill="#002991"/>
<path d="M43.9 26.56C43.5041 28.9848 42.2546 31.1881 40.3768 32.7725C38.4991 34.3569 36.1168 35.2178 33.66 35.2H29.48L27.74 46H20.29L21.49 38.8L22.89 29.86L23.19 28H29.21C35.45 28 39.59 22.74 39.59 18.28C41.1 19.0172 42.3336 20.2193 43.1095 21.7098C43.8853 23.2003 44.1624 24.9003 43.9 26.56Z" fill="#60CDFF"/>
<path d="M39.5899 18.28C38.1817 17.5607 36.6212 17.1903 35.0399 17.2H24.8899L23.1899 28H29.2099C35.4499 28 39.5899 22.74 39.5899 18.28Z" fill="#008CFF"/>
</g>
<defs>
<clipPath id="clip0_4_66">
<rect width="56" height="56" fill="white"/>
</clipPath>
</defs>
</svg>
