<svg width="56" height="56" viewBox="0 0 56 56" fill="none" xmlns="http://www.w3.org/2000/svg">
<g clip-path="url(#clip0_4_37)">
<path d="M0 0H56V56H0V0Z" fill="#28458E"/>
<path d="M42.417 35.035C42.881 26.299 35.218 16.414 24.816 15.218V15.08C35.079 15.08 42.928 24.46 42.928 31.908C42.928 33.471 42.788 34.391 42.556 35.08L42.417 35.035ZM41.813 36.184C41.0533 37.0873 40.1969 37.9045 39.259 38.621C37.401 28.091 29.599 18.896 24.073 16.184L23.933 16.276C29.506 20.782 36.101 29.563 38.702 39.035C37.3969 40.0029 35.9771 40.8057 34.475 41.425C29.228 35.495 24.351 24.092 22.772 16.828L22.633 16.874C22.68 23.908 27.695 35.862 33.872 41.701C32.4694 42.2718 31.0037 42.6733 29.506 42.897C23.608 40.597 19.429 33.195 19.429 25.609C19.429 20.644 20.961 17.609 21.239 16.965L21.101 16.919C20.729 17.471 18.5 20.506 18.5 25.885C18.5 34.437 22.772 41.011 28.438 43.08C26.488 43.31 24.444 43.218 22.355 42.805L22.308 42.943C22.912 43.173 24.955 44 28.113 44C35.218 44 40.002 39.632 41.953 36.322L41.813 36.184Z" fill="white"/>
<path d="M27.4171 12C22.0301 12 15.7141 15.862 15.7141 19.356C15.7141 20.736 16.9681 21.886 19.5691 21.886C25.6061 21.886 31.2251 17.793 31.2251 14.575C31.2251 12.874 29.6001 12 27.4171 12ZM29.5531 14.483C29.5531 17.195 24.3521 20.46 19.9861 20.46C18.0361 20.46 17.0141 19.724 17.0141 18.483C17.0141 15.77 22.3091 12.506 26.3951 12.506C29.0431 12.506 29.5531 13.839 29.5531 14.483Z" fill="white"/>
<path d="M13.577 21.012C13.438 21.288 12.834 22.438 12.834 23.633C12.834 25.886 15.11 27.955 19.29 27.955C27.324 27.955 36.658 22.07 36.658 16.599C36.658 14.162 34.336 12.829 32.711 12.553L32.664 12.644C33.175 12.782 35.033 13.656 35.033 15.817C35.033 20.185 26.813 26.07 18.639 26.07C15.481 26.07 13.531 24.553 13.531 22.3C13.531 21.61 13.671 21.15 13.717 21.012H13.577Z" fill="white"/>
<path d="M40.002 17.012C40.234 17.195 41.534 18.252 41.534 20.368C41.534 27.448 30.342 34.391 20.45 34.391C14.552 34.345 11.905 31.494 11.998 28.92H12.091C12.323 30.253 14.227 32.644 19.382 32.644C29.274 32.644 40.327 25.471 40.327 19.172C40.327 18.115 40.048 17.425 39.863 17.103L40.002 17.012Z" fill="white"/>
<path d="M43.718 23.586C43.764 23.724 43.996 24.414 43.996 25.471C43.996 33.333 32.665 40.046 22.819 40.046C17.757 40.046 15.11 37.609 14.553 36.644L14.646 36.598C16.039 37.793 18.826 38.713 22.03 38.713C30.714 38.713 43.671 32.183 43.578 23.633L43.718 23.586Z" fill="white"/>
</g>
<defs>
<clipPath id="clip0_4_37">
<rect width="56" height="56" fill="white"/>
</clipPath>
</defs>
</svg>
