<svg width="56" height="56" viewBox="0 0 56 56" fill="none" xmlns="http://www.w3.org/2000/svg">
<g clip-path="url(#clip0_4_109)">
<path d="M0 28C0 20.5739 2.94999 13.452 8.20101 8.20101C13.452 2.94999 20.5739 0 28 0C35.4261 0 42.548 2.94999 47.799 8.20101C53.05 13.452 56 20.5739 56 28C56 35.4261 53.05 42.548 47.799 47.799C42.548 53.05 35.4261 56 28 56C20.5739 56 13.452 53.05 8.20101 47.799C2.94999 42.548 0 35.4261 0 28Z" fill="#F0F3FA"/>
<path d="M12 23H19.78L12 29.02L20.49 24.67L12.25 33.69L21.53 26.51L13.83 38.54L23.45 27.77L17.15 40.71L25.04 28.85L21.72 43.02L26.97 29.79L27 45.83L12 37.89" fill="#F9A634"/>
<path d="M29.78 10L44 20.25V37.1L28 46V23.87L20.71 17.53L12 21.85V19.55" fill="#EE1B2E"/>
</g>
<defs>
<clipPath id="clip0_4_109">
<rect width="56" height="56" fill="white"/>
</clipPath>
</defs>
</svg>
