<svg width="56" height="56" viewBox="0 0 56 56" fill="none" xmlns="http://www.w3.org/2000/svg">
<g clip-path="url(#clip0_4_78)">
<path d="M0 0H56V56H0V0Z" fill="#FFD500"/>
<path d="M28 43C26.782 43 26.005 42.086 26.005 42.086C25.007 42.046 17.196 42.063 17.196 42.063L16.586 36.107C16.586 36.107 11.775 32.878 11.386 32.501C9.07997 22.52 17.426 13 27.999 13C38.572 13 46.924 22.519 44.613 32.501C44.223 32.873 39.411 36.107 39.411 36.107L38.5 42.063C38.5 42.063 30.69 42.039 29.691 42.086C29.691 42.08 29.217 43 28 43Z" fill="#ED1C24"/>
<path d="M28.011 33.696L27.275 16.038C26.387 15.864 24.112 16.073 22.895 16.936L26.435 33.76L21.605 17.626C20.45 17.614 18.108 19.481 17.937 20.032L24.987 34.345L17.067 21.267C16.289 21.545 14.579 24.537 14.853 24.884L23.68 35.186L14.598 26.391C14.598 26.391 13.418 28.107 14.184 31.006L19.312 34.536L19.904 39.25H26.194C26.194 39.25 27.275 40.287 28.005 40.287C28.735 40.287 29.71 39.25 29.71 39.25H36L36.698 34.536L41.827 31.006C42.599 28.102 41.413 26.391 41.413 26.391L32.337 35.186L41.163 24.89C41.437 24.542 39.728 21.545 38.949 21.273L31.029 34.357L38.079 20.044C37.903 19.493 35.567 17.626 34.411 17.638L29.58 33.77L33.12 16.947C31.904 16.083 29.635 15.874 28.74 16.048L28.01 33.695L28.011 33.696Z" fill="#FCFCFC"/>
</g>
<defs>
<clipPath id="clip0_4_78">
<rect width="56" height="56" fill="white"/>
</clipPath>
</defs>
</svg>
