<svg width="56" height="56" viewBox="0 0 56 56" fill="none" xmlns="http://www.w3.org/2000/svg">
<g clip-path="url(#clip0_11_15)">
<path d="M0 0H56V56H0V0Z" fill="url(#paint0_linear_11_15)"/>
<path d="M38.14 20.71C37.94 20.89 37.69 21 37.43 21H13.63C13.11 21 12.82 20.44 13.13 20.04L17.78 15.3C17.98 15.11 18.23 15 18.49 15H42.37C42.89 15 43.18 15.57 42.87 15.96L38.14 20.71Z" fill="url(#paint1_linear_11_15)"/>
<path d="M38.1401 40.72C37.9401 40.9 37.6901 41 37.4201 41H13.6201C13.1201 41 12.8201 40.44 13.1201 40.04L17.7801 35.29C17.9801 35.1 18.2301 35 18.4901 35H42.3701C42.8901 35 43.1801 35.57 42.8701 35.96L38.1401 40.72Z" fill="url(#paint2_linear_11_15)"/>
<path d="M38.1401 25.28C37.9401 25.1 37.6901 25 37.4201 25H13.6201C13.1201 25 12.8201 25.56 13.1201 25.96L17.7801 30.71C17.9801 30.89 18.2301 31 18.4901 31H42.3701C42.8901 31 43.1801 30.43 42.8701 30.04L38.1401 25.28Z" fill="url(#paint3_linear_11_15)"/>
</g>
<defs>
<linearGradient id="paint0_linear_11_15" x1="10.42" y1="9.71" x2="68.15" y2="76.02" gradientUnits="userSpaceOnUse">
<stop stop-color="#1A1E21"/>
<stop offset="1" stop-color="#06060A"/>
</linearGradient>
<linearGradient id="paint1_linear_11_15" x1="14.06" y1="23.44" x2="41.45" y2="15.35" gradientUnits="userSpaceOnUse">
<stop stop-color="#6E73E3"/>
<stop offset="0.32" stop-color="#41B8C8"/>
<stop offset="0.58" stop-color="#27E2B7"/>
<stop offset="1" stop-color="#16FC99"/>
</linearGradient>
<linearGradient id="paint2_linear_11_15" x1="12.3901" y1="40.04" x2="43.6101" y2="35.66" gradientUnits="userSpaceOnUse">
<stop stop-color="#9E48FF"/>
<stop offset="0.34" stop-color="#8D4DF9"/>
<stop offset="0.57" stop-color="#6B7AE1"/>
<stop offset="0.95" stop-color="#45B3CE"/>
</linearGradient>
<linearGradient id="paint3_linear_11_15" x1="14.1801" y1="28" x2="42.4201" y2="28" gradientUnits="userSpaceOnUse">
<stop stop-color="#8654F3"/>
<stop offset="0.47" stop-color="#549AD6"/>
<stop offset="0.93" stop-color="#26D9B2"/>
</linearGradient>
<clipPath id="clip0_11_15">
<rect width="56" height="56" fill="white"/>
</clipPath>
</defs>
</svg>
