<svg width="56" height="56" viewBox="0 0 56 56" fill="none" xmlns="http://www.w3.org/2000/svg">
<g clip-path="url(#clip0_12_2)">
<path d="M0 0H56V56H0V0Z" fill="#1DA8DC"/>
<path fill-rule="evenodd" clip-rule="evenodd" d="M4 24V22H6V24H4ZM4 33V25H6V33H4ZM23 33V27.8C23 26 21.98 24.99 20.58 24.99C19.68 24.98 18.53 25.45 18 26.24V22H16V33H18V28.4C18 27.5 18.78 27 19.55 26.99C20.28 26.99 21 27.42 21 28.37V33H23ZM39.62 29.36H44.76C44.82 29.02 44.85 28.67 44.84 28.32C44.84 25.97 43.47 24.39 41.11 24.39C38.75 24.39 37.26 26.19 37.26 28.66C37.26 31.34 38.8 33 41.43 33C42.0345 33.0238 42.6366 32.9102 43.1909 32.6677C43.7452 32.4252 44.2372 32.0602 44.63 31.6L43.26 30.06C42.78 30.61 42.11 30.91 41.42 30.89C40.3 30.89 39.71 30.22 39.62 29.36ZM41.12 26.36C42 26.36 42.51 26.93 42.56 27.78H39.62C39.72 26.93 40.24 26.36 41.12 26.36ZM45.12 31.6C46 32.5 47.52 33 48.66 33C50.61 33 52.01 32.12 52 30.3C52 28.68 50.9 28.19 49.85 27.86L49.1 27.66C48.8 27.58 48.53 27.51 48.32 27.44C47.88 27.28 47.7 27.12 47.7 26.86C47.7 26.54 48.03 26.32 48.62 26.32C49.27 26.32 50.08 26.54 50.65 27.15L51.97 25.65C51.5264 25.2301 51.0032 24.9032 50.4313 24.6885C49.8594 24.4739 49.2504 24.3758 48.64 24.4C46.68 24.4 45.51 25.37 45.51 26.95C45.51 28.65 46.61 29.15 47.71 29.5C47.97 29.59 48.26 29.66 48.53 29.73C48.78 29.79 49.01 29.84 49.19 29.9C49.63 30.05 49.79 30.2 49.79 30.46C49.79 30.81 49.46 31 48.66 31C47.83 31 47.03 30.68 46.43 30.06L45.13 31.6H45.12ZM31.44 31.05C31.57 31.05 31.69 31.03 31.82 31V32.72C31.39 32.9 30.94 32.99 30.48 32.99C29.85 32.99 29.28 32.71 28.98 31.91C28.6713 32.2591 28.2907 32.5373 27.8643 32.7254C27.438 32.9136 26.976 33.0073 26.51 33C24.98 33 24 32.14 24 30.51C24 28.91 25.18 27.96 27 27.96C27.6 27.96 28.41 28.04 29 28.2V27.94C29 27.02 28.13 26.48 27.13 26.48C26.46 26.5 25.82 26.78 25.31 27.28L24.03 25.79C24.9409 24.9414 26.1453 24.479 27.39 24.5C29.55 24.5 31 25.56 31 27.7V30.6C31 30.9 31.14 31.06 31.44 31.06V31.05ZM27.52 29.36C27.95 29.37 28.58 29.43 29 29.54V30.08C29 30.83 28.14 31.32 27.4 31.32C26.68 31.32 26.34 30.92 26.34 30.37C26.34 29.79 26.73 29.37 27.52 29.37V29.36ZM36.39 24.71C36.83 24.69 37.25 24.88 37.55 25.24L36.63 27.27C36.4063 27.0825 36.1218 26.9829 35.83 26.99C35.25 26.99 34.61 27.63 34.61 28.63V33H32.61V25H34.61V26.01C35.01 25.23 35.64 24.71 36.39 24.71ZM11 24C11.85 23.97 12.67 24.54 13.23 25.25L14.85 23.77C13.88 22.43 12.54 22 11.08 22C8.78 22 7.37 23.24 7.37 25.15C7.37 27.19 8.81 28.03 10.47 28.55L10.69 28.61C12.13 29.06 12.73 29.24 12.73 29.91C12.73 30.38 12.33 31 11.18 31C10.21 31 9.26 30.45 8.63 29.52L7 31.02C7.94 32.43 9.4 33 11.2 33C13.32 33 15 31.96 15 29.72C15 27.59 13.26 26.93 11.72 26.45C10.32 26.02 9.6 25.77 9.6 25.06C9.6 24.54 10.08 24 11 24Z" fill="black"/>
</g>
<defs>
<clipPath id="clip0_12_2">
<rect width="56" height="56" fill="white"/>
</clipPath>
</defs>
</svg>
