<svg width="56" height="56" viewBox="0 0 56 56" fill="none" xmlns="http://www.w3.org/2000/svg">
<g clip-path="url(#clip0_4_82)">
<path d="M0 0H56V56H0V0Z" fill="url(#paint0_linear_4_82)"/>
<path d="M44 28C44 36.837 36.837 44 28 44C19.163 44 12 36.837 12 28C12 19.163 19.163 12 28 12C36.837 12 44 19.163 44 28Z" fill="#007042"/>
<path fill-rule="evenodd" clip-rule="evenodd" d="M27.909 17.625C28.479 17.953 29.083 18.375 29.543 18.824L29.363 19.006C28.747 18.94 28.11 18.974 27.495 19.007C27.203 19.023 26.915 19.039 26.637 19.043L26.6 19.007C26.501 18.912 26.37 18.786 26.528 18.679L27.909 17.625ZM43.964 28.905L43.968 29.019C44.0027 28.47 44.0093 27.9197 43.988 27.37C42.906 28.179 42.018 27.679 41.106 27.166C40.349 26.739 39.575 26.304 38.659 26.599C38.683 26.667 38.704 26.736 38.725 26.804C38.802 27.052 38.878 27.298 39.06 27.507C39.821 27.502 40.482 27.837 41.134 28.169C42.017 28.617 42.884 29.058 43.963 28.632L43.964 28.905ZM43.854 30.087L43.871 30.044C43.7956 30.6346 43.6871 31.2205 43.546 31.799C43.562 31.644 43.584 31.499 43.636 31.393C42.837 31.425 42.202 31.055 41.567 30.685C40.981 30.343 40.394 30.001 39.679 29.978L39.497 29.068C40.263 28.941 40.911 29.273 41.559 29.604C42.272 29.969 42.984 30.334 43.854 30.087ZM42.766 32.52C43.056 32.659 43.232 32.651 43.34 32.561C43.235 32.915 43.119 33.263 42.99 33.605C42.422 33.51 41.93 33.223 41.44 32.937C40.94 32.647 40.441 32.355 39.86 32.264C39.868 32.168 39.864 32.068 39.86 31.966C39.852 31.762 39.843 31.556 39.932 31.393C40.569 31.393 41.08 31.689 41.592 31.985C41.967 32.202 42.342 32.419 42.766 32.52ZM42.475 34.7C42.5098 34.6738 42.5425 34.645 42.573 34.614C42.408 34.977 42.23 35.332 42.04 35.68C42.0416 35.6554 42.0416 35.6306 42.04 35.606C41.68 35.499 41.363 35.29 41.045 35.08C40.605 34.788 40.163 34.496 39.606 34.481L39.786 33.645C40.371 33.631 40.866 33.913 41.364 34.195C41.721 34.399 42.081 34.603 42.475 34.7ZM40.752 36.206C40.998 36.344 41.245 36.483 41.512 36.571C41.332 36.856 41.142 37.134 40.944 37.406L40.949 37.389L39.641 36.734C39.071 36.373 38.961 36.739 38.846 37.125C38.779 37.347 38.71 37.576 38.551 37.678C37.354 37.61 36.708 37.036 36.001 36.409C35.851 36.276 35.698 36.139 35.536 36.006C35.594 35.712 35.743 35.456 35.892 35.199C36.025 34.969 36.159 34.739 36.228 34.481C36.637 33.116 35.898 32.008 35.176 30.925C34.9563 30.6051 34.7495 30.2765 34.556 29.94C34.3751 29.6258 34.2825 29.2685 34.288 28.906C34.291 28.416 34.445 27.928 34.6 27.435C34.75 26.956 34.902 26.473 34.92 25.98C35.216 24.71 34.64 23.487 34.148 22.446L34.118 22.385C34.458 22.591 34.824 22.868 35.029 23.218C35.707 24.55 35.901 26.405 35.283 27.833C35.1432 28.1727 35.0803 28.5391 35.099 28.906C35.147 29.713 35.609 30.403 36.077 31.102C36.58 31.852 37.088 32.612 37.099 33.535C37.26 33.657 37.419 33.796 37.577 33.937C38.132 34.427 38.699 34.927 39.46 34.7C39.502 34.9 39.456 35.109 39.411 35.311C39.378 35.463 39.345 35.611 39.351 35.752C39.892 35.722 40.321 35.964 40.752 36.206ZM40.11 38.203L40.262 38.278C40.012 38.576 39.752 38.865 39.481 39.144C39.514 39.094 39.543 39.042 39.569 38.986C39.2129 38.7278 38.8031 38.5534 38.37 38.476C38.356 38.198 38.513 37.98 38.696 37.786C39.238 37.766 39.676 37.986 40.11 38.203ZM37.753 39.493L38.751 39.85C38.4774 40.0987 38.1952 40.3378 37.905 40.567C37.7358 40.4405 37.5509 40.3363 37.355 40.257C37.265 40.06 37.432 39.87 37.595 39.687C37.652 39.621 37.709 39.556 37.753 39.493ZM35.56 40.115C35.88 40.6 36.199 41.085 36.392 41.625C36.221 41.731 36.047 41.834 35.872 41.933C35.741 41.287 35.37 40.739 35 40.189C34.722 39.778 34.443 39.366 34.266 38.911C34.262 38.826 34.256 38.738 34.249 38.648C34.215 38.176 34.179 37.658 34.485 37.314L34.557 37.386C34.476 38.468 35.017 39.29 35.56 40.115ZM34.023 40.225C34.467 40.92 34.921 41.628 34.985 42.399C34.678 42.549 34.365 42.688 34.048 42.817C34.145 41.821 33.574 40.959 33.02 40.124C32.873 39.901 32.726 39.68 32.594 39.459C31.851 37.951 32.785 36.721 33.669 35.556C33.879 35.281 34.085 35.009 34.266 34.737C34.955 33.278 34.086 32.009 33.292 30.847C33.1264 30.6091 32.9664 30.3674 32.812 30.122C32.5675 29.7658 32.4518 29.3369 32.484 28.906H32.487C32.525 28.216 32.862 27.516 33.157 26.901C33.202 26.811 33.245 26.721 33.286 26.634C33.916 24.938 33.479 22.882 32.378 21.621C33.116 21.924 33.659 22.749 33.902 23.475C34.406 24.732 34.02 26.19 33.655 27.568C33.545 27.981 33.438 28.388 33.358 28.778L33.355 28.906C33.347 29.849 33.863 30.548 34.382 31.252C34.757 31.761 35.135 32.272 35.318 32.881C35.653 34.069 34.974 34.969 34.322 35.834C34.15 36.062 33.979 36.288 33.83 36.516C32.52 37.878 33.259 39.031 34.023 40.225ZM32.098 40.331C32.64 41.219 33.191 42.121 32.972 43.212C32.611 43.33 32.244 43.436 31.872 43.528C32.294 42.204 31.669 41.093 31.059 40.009C30.8508 39.6528 30.6599 39.2867 30.487 38.912C30.007 37.537 30.864 36.437 31.692 35.375C31.905 35.101 32.117 34.829 32.303 34.555C33.009 33.235 32.21 32.11 31.465 31.06C31.301 30.829 31.14 30.601 30.998 30.376C30.726 29.863 30.67 29.376 30.736 28.906C30.821 28.3 31.106 27.72 31.386 27.15C31.567 26.782 31.746 26.417 31.868 26.052C32.534 24.467 32.158 22.494 30.923 21.296L30.96 21.258C31.5947 21.6482 32.1001 22.2169 32.413 22.893C33.024 24.19 32.555 25.642 32.091 27.08C31.892 27.696 31.694 28.308 31.582 28.906L31.542 29.142C31.519 30.055 31.996 30.656 32.486 31.273C32.75 31.607 33.018 31.945 33.214 32.339C33.95 33.776 33.074 34.879 32.221 35.955C31.996 36.239 31.771 36.521 31.58 36.807C30.78 38.177 31.433 39.243 32.098 40.331ZM29.848 39.554C30.558 40.87 31.334 42.307 30.773 43.76C28.9722 44.0752 27.1309 44.0813 25.328 43.778C24.738 42.453 25.349 41.277 25.95 40.121C26.216 39.61 26.48 39.103 26.636 38.589C27.047 37.299 26.324 36.397 25.595 35.487C25.269 35.081 24.942 34.673 24.714 34.227C24.212 33.18 24.771 32.39 25.334 31.593C25.644 31.156 25.954 30.717 26.092 30.233C26.303 29.626 26.732 29.778 27.156 29.928C27.383 30.008 27.61 30.088 27.801 30.051C28.11 30.107 28.402 30.012 28.683 29.921C29.073 29.795 29.439 29.676 29.798 29.979C29.932 30.527 30.288 30.983 30.644 31.437C31.089 32.006 31.533 32.573 31.539 33.32C31.519 34.221 30.941 34.937 30.371 35.643C29.626 36.568 28.892 37.477 29.435 38.768C29.562 39.024 29.703 39.287 29.848 39.554ZM24.166 43.417C24.166 43.462 24.168 43.502 24.174 43.539C23.833 43.456 23.496 43.361 23.164 43.256C22.934 42.143 23.461 41.281 23.986 40.421C24.419 39.71 24.853 39.001 24.858 38.151C24.922 37.184 24.34 36.489 23.758 35.793C23.347 35.303 22.936 34.813 22.751 34.227C22.328 32.968 23.111 31.934 23.844 30.964C23.928 30.852 24.013 30.741 24.094 30.63C24.481 30.028 24.572 29.46 24.51 28.906C24.44 28.301 24.186 27.712 23.928 27.115C23.6 26.357 23.267 25.585 23.296 24.746C23.271 23.366 23.876 22.009 25.074 21.368C25.002 21.472 24.928 21.575 24.854 21.678C24.556 22.089 24.259 22.5 24.094 22.965C23.517 24.53 24.129 25.923 24.724 27.276C24.902 27.683 25.078 28.086 25.221 28.488C25.269 28.632 25.302 28.771 25.321 28.906C25.456 29.846 24.952 30.588 24.446 31.335C24.081 31.872 23.716 32.411 23.584 33.028C23.328 34.113 23.932 34.843 24.544 35.58C24.942 36.061 25.343 36.545 25.51 37.133C25.975 38.38 25.43 39.361 24.88 40.348C24.357 41.287 23.83 42.23 24.166 43.417ZM22.876 40.5C22.406 41.215 21.939 41.927 22.049 42.857C21.7351 42.7312 21.4253 42.5955 21.12 42.45C21.172 41.658 21.604 41.023 22.037 40.387C22.304 39.994 22.572 39.6 22.751 39.168C23.367 37.879 22.602 36.918 21.838 35.958C21.475 35.503 21.112 35.047 20.898 34.556C20.268 33.174 21.153 31.877 22.025 30.849C22.632 30.193 22.79 29.552 22.736 28.906C22.69 28.352 22.488 27.796 22.283 27.231C21.947 26.307 21.602 25.358 21.915 24.346C22.206 23.329 22.641 22.116 23.694 21.694C22.931 22.577 22.531 23.607 22.46 24.781C22.34 25.675 22.69 26.416 23.032 27.144C23.302 27.717 23.567 28.281 23.599 28.906C23.6134 29.2076 23.572 29.5093 23.477 29.796C23.265 30.256 22.957 30.674 22.649 31.093C22.096 31.843 21.544 32.593 21.552 33.573C21.475 34.555 22.062 35.239 22.651 35.923C23.265 36.639 23.88 37.353 23.731 38.407C23.72 39.214 23.297 39.858 22.876 40.5ZM21.072 40.196C20.684 40.756 20.288 41.326 20.219 41.984C20.043 41.886 19.869 41.784 19.697 41.68C19.887 41.108 20.217 40.598 20.545 40.089C20.843 39.629 21.14 39.168 21.335 38.661C21.371 38.485 21.395 38.294 21.42 38.105C21.454 37.837 21.489 37.572 21.552 37.352C22.27 38.469 21.681 39.319 21.072 40.196ZM18.684 40.22L18.105 40.575C17.8188 40.3488 17.5403 40.113 17.27 39.868C17.358 39.834 17.443 39.791 17.528 39.748C17.747 39.638 17.965 39.527 18.248 39.566L18.32 39.652C18.47 39.83 18.621 40.012 18.684 40.22ZM17.099 38.683C16.813 38.736 16.501 38.793 16.384 39.003C16.173 38.78 15.969 38.552 15.771 38.318C15.868 38.27 15.968 38.212 16.071 38.154C16.494 37.911 16.954 37.647 17.413 37.934C17.919 38.532 17.541 38.601 17.099 38.683ZM15.345 37.273C15.258 37.3307 15.1704 37.3874 15.082 37.443C14.8661 37.1478 14.6604 36.8452 14.465 36.536C14.499 36.557 14.537 36.574 14.577 36.588C14.812 36.491 15.031 36.358 15.25 36.225C15.69 35.959 16.128 35.693 16.684 35.717C16.588 35.401 16.503 34.977 16.54 34.699C17.34 34.911 17.883 34.484 18.422 34.061C18.592 33.928 18.761 33.794 18.938 33.681C19.054 32.657 19.581 31.801 20.108 30.944C20.348 30.554 20.588 30.164 20.788 29.759C20.858 29.473 20.88 29.189 20.876 28.905C20.864 28.355 20.741 27.81 20.617 27.265C20.387 26.251 20.157 25.233 20.644 24.163C20.874 23.522 21.274 22.676 21.953 22.494C20.706 23.984 20.936 26.259 21.59 27.942C21.722 28.285 21.769 28.603 21.756 28.905C21.722 29.716 21.248 30.41 20.776 31.1C20.476 31.54 20.176 31.98 19.99 32.448C19.398 33.648 19.94 35.017 20.607 36.008C20.437 36.14 20.269 36.278 20.1 36.416C19.324 37.054 18.545 37.695 17.52 37.715C17.287 37.601 17.203 37.349 17.12 37.096C17.078 36.97 17.036 36.844 16.975 36.735C16.359 36.613 15.845 36.947 15.345 37.273ZM13.96 35.645C13.978 35.685 13.995 35.728 14.012 35.773C13.81 35.411 13.622 35.04 13.449 34.663C13.745 34.763 14.161 34.493 14.608 34.203C15.149 33.852 15.737 33.471 16.212 33.682C16.226 33.77 16.252 33.857 16.278 33.945C16.338 34.144 16.398 34.343 16.321 34.555C15.75 34.547 15.307 34.845 14.864 35.145C14.574 35.34 14.285 35.535 13.96 35.645ZM13.018 33.572C13.018 33.595 13.02 33.617 13.022 33.639C12.5874 32.4843 12.2887 31.2828 12.132 30.059C12.1364 30.0557 12.1408 30.0524 12.145 30.049C13.052 30.337 13.787 29.959 14.52 29.582C15.146 29.259 15.772 28.937 16.503 29.032L16.493 29.12C16.46 29.444 16.426 29.78 16.249 30.012C15.567 30.047 15.005 30.366 14.443 30.686C13.807 31.047 13.171 31.409 12.361 31.358L12.651 32.52C13.311 32.587 13.854 32.281 14.396 31.975C14.938 31.669 15.48 31.364 16.14 31.43L16.105 32.3C15.533 32.354 15.062 32.645 14.59 32.935C14.102 33.235 13.615 33.535 13.018 33.572ZM43.744 25.133C43.834 25.627 43.9 26.128 43.943 26.636C43.8954 26.1327 43.8297 25.6313 43.744 25.133ZM36.338 14.341C37.278 14.916 38.153 15.585 38.951 16.335C38.204 15.633 37.389 15.0069 36.518 14.466C36.4585 14.4238 36.3985 14.3821 36.338 14.341ZM12.013 28.661L12.035 28.631C13.202 29.084 14.258 28.534 15.274 28.005C15.565 27.853 15.854 27.703 16.14 27.579C16.2606 27.5506 16.3843 27.5378 16.508 27.541C16.766 27.535 17.024 27.53 17.122 27.288C17.117 27.186 17.182 27.078 17.246 26.972C17.356 26.788 17.462 26.612 17.194 26.489C16.371 26.378 15.669 26.75 14.978 27.117C14.093 27.587 13.225 28.047 12.144 27.47L12.019 27.216C11.9957 27.6973 11.9937 28.1795 12.013 28.661ZM20.607 13.811L20.349 13.944C20.469 13.879 20.589 13.815 20.712 13.753L20.607 13.812V13.811ZM21.151 22.166C20.016 21.423 18.606 21.981 17.479 22.426C17.356 22.475 17.237 22.522 17.122 22.566C17.012 21.464 16.565 20.459 15.632 19.733C15.608 19.721 15.581 19.705 15.552 19.689C15.4775 19.6369 15.3926 19.6018 15.303 19.586C15.236 19.582 15.172 19.609 15.122 19.696C15.268 22.179 14.358 23.526 13.372 24.986C13.132 25.341 12.889 25.703 12.654 26.089C13.054 26.416 13.694 26.367 14.179 26.271C14.475 26.152 14.769 26.013 15.063 25.874C16.031 25.414 17.013 24.949 18.173 25.181C18.621 24.418 19.373 23.679 19.99 23.074C20.136 22.947 20.304 22.838 20.47 22.731C20.731 22.561 20.988 22.395 21.151 22.166ZM25.002 23.8C24.978 23.957 25.014 24.237 25.256 24.129C25.533 23.745 25.967 23.868 26.341 23.974C26.475 24.011 26.601 24.047 26.709 24.057V23.91C26.483 23.556 26.019 23.378 25.547 23.395C25.438 23.399 25.327 23.415 25.221 23.44C25.1819 23.4471 25.1447 23.4625 25.1119 23.4851C25.0791 23.5076 25.0514 23.5369 25.0308 23.5709C25.0101 23.6049 24.9968 23.6429 24.9919 23.6824C24.9869 23.7218 24.9904 23.7619 25.002 23.8ZM30.922 22.24C30.584 21.49 29.809 21.186 29.106 21.004C28.7554 20.9593 28.4025 20.9342 28.049 20.929H27.85C26.857 20.949 25.91 21.204 25.33 22.021C25.308 22.081 25.267 22.149 25.224 22.218C25.104 22.414 24.97 22.63 25.221 22.783L25.34 22.775C26.073 22.726 26.88 22.672 27.362 23.293C27.362 23.451 27.39 23.623 27.418 23.796C27.492 24.259 27.567 24.724 27.108 24.927C26.838 24.677 26.541 24.742 26.239 24.808C25.959 24.869 25.675 24.932 25.402 24.745C25.135 24.588 24.967 24.772 24.857 25.002C24.7 26.502 25.486 28.16 26.89 28.995C27.459 29.2 28.224 29.395 28.818 29.105C30.246 28.439 30.838 26.914 31.104 25.509C31.099 25.471 31.094 25.428 31.09 25.382C31.064 25.104 31.028 24.719 30.706 24.708C30.291 24.971 29.689 24.824 29.242 24.715L29.216 24.708C29.09 24.749 29.021 24.858 28.951 24.97C28.873 25.092 28.795 25.217 28.637 25.256L28.453 25.109C28.295 24.444 28.198 23.499 28.816 23.039C29.506 22.76 30.318 22.639 31.032 22.857C31.121 22.704 31.059 22.572 30.997 22.44C30.966 22.375 30.935 22.309 30.922 22.24ZM30.11 23.437L30.051 23.44C29.975 23.49 29.853 23.515 29.728 23.54C29.442 23.599 29.139 23.66 29.325 24.057C29.783 23.694 30.421 23.945 30.88 24.126L30.887 24.129C31.025 24.06 31.027 23.936 31.029 23.813C31.029 23.784 31.029 23.756 31.032 23.728C30.884 23.454 30.532 23.428 30.193 23.434L30.11 23.437ZM35.465 18.315C34.867 18.283 34.335 18.498 33.803 18.714C33.536 18.822 33.269 18.93 32.995 19.006C32.952 18.587 33.125 18.155 33.297 17.724C33.412 17.434 33.527 17.145 33.577 16.862C32.481 16.932 31.572 17.488 30.67 18.04C30.477 18.158 30.284 18.276 30.09 18.39C29.834 17.773 29.579 17.154 29.326 16.536L30.779 15.156L30.816 14.973L28.853 14.864C28.707 14.608 28.6 14.33 28.493 14.053C28.351 13.687 28.21 13.323 27.983 13.013C27.819 13.323 27.683 13.64 27.546 13.958C27.409 14.275 27.273 14.593 27.109 14.901L25.149 15.011V15.155L26.637 16.499L26.595 16.66C26.427 17.304 26.251 17.98 25.839 18.461C25.6917 18.3726 25.5447 18.2836 25.398 18.194C24.674 17.754 23.946 17.31 23.152 17.008L23.112 16.995C22.885 16.921 22.582 16.822 22.388 16.971L22.543 17.3C22.815 17.87 23.103 18.472 23.043 19.08C22.82 19.04 22.623 18.942 22.429 18.845C22.2769 18.7632 22.1176 18.6956 21.953 18.643C21.8582 18.6164 21.7639 18.5881 21.67 18.558C21.291 18.439 20.882 18.311 20.535 18.427C21.262 19.443 21.855 20.507 22.06 21.731C24.47 20.567 27.281 19.927 30.2 20.424C31.319 20.603 32.365 21.008 33.378 21.401C33.603 21.489 33.826 21.575 34.048 21.658C34.085 20.653 34.591 19.803 35.077 18.987C35.211 18.761 35.344 18.537 35.465 18.315ZM39.604 25.29C39.987 25.392 40.371 25.592 40.757 25.793C41.614 26.239 42.482 26.691 43.382 26.089C43.158 25.716 42.911 25.349 42.664 24.98C41.66 23.483 40.644 21.969 41.022 19.987C41.071 19.818 40.962 19.647 40.805 19.623C40.067 19.925 39.495 20.653 39.203 21.368C39.163 21.509 39.128 21.653 39.093 21.798C39.024 22.085 38.955 22.373 38.843 22.638C37.958 22.178 37.014 21.732 35.937 21.84L35.829 21.853C35.452 21.896 34.985 21.95 34.919 22.313C36.143 22.967 37.148 24.057 37.897 25.219C38.419 25.134 39.059 25.206 39.604 25.29ZM26.674 26.997L26.709 27.217C26.867 27.322 26.989 27.452 27.106 27.577C27.336 27.824 27.546 28.049 27.982 28.017C28.562 28.052 28.999 27.507 29.288 27.072C28.914 27.02 28.501 27.032 28.078 27.042C27.611 27.055 27.131 27.067 26.674 26.997ZM27.529 26.142C27.434 26.1 27.329 26.052 27.165 26.014C27.09 25.979 27.112 25.921 27.155 25.863C27.331 25.663 27.501 25.707 27.675 25.753C27.753 25.773 27.832 25.793 27.912 25.793C27.9685 25.7881 28.024 25.7757 28.077 25.756C28.232 25.707 28.407 25.651 28.635 25.875C28.692 25.93 28.646 26.002 28.613 26.013C28.4808 26.0576 28.3506 26.1083 28.223 26.165C28.093 26.222 28.041 26.245 27.864 26.248C27.723 26.23 27.632 26.189 27.529 26.142Z" fill="white"/>
</g>
<defs>
<linearGradient id="paint0_linear_4_82" x1="10.418" y1="9.712" x2="68.147" y2="76.017" gradientUnits="userSpaceOnUse">
<stop stop-color="#1A1E21"/>
<stop offset="1" stop-color="#06060A"/>
</linearGradient>
<clipPath id="clip0_4_82">
<rect width="56" height="56" fill="white"/>
</clipPath>
</defs>
</svg>
