<svg width="56" height="56" viewBox="0 0 56 56" fill="none" xmlns="http://www.w3.org/2000/svg">
<g clip-path="url(#clip0_4_17)">
<path d="M0 0H56V56H0V0Z" fill="#CCCC00"/>
<path d="M38 38.6C38 39.98 37.15 41 35.5 41C33.86 41 33 39.98 33 38.6V35H34.31V38.55C34.31 39.27 34.81 39.81 35.51 39.81C36.2 39.81 36.7 39.27 36.7 38.55V35H38V38.6ZM40.32 37.55H41.2C41.67 37.55 42.13 37.38 42.13 36.83C42.13 36.21 41.5 36.13 41 36.13H40.32V37.55ZM39 35H41.23C42.47 35 43.5 35.4 43.5 36.82C43.5 38.23 42.54 38.66 41.28 38.66H40.32V41H39V35ZM29 39.83C30.05 39.83 30.73 39.06 30.73 37.99C30.73 36.93 30.05 36.15 29 36.15C27.95 36.15 27.27 36.93 27.27 37.99C27.27 39.06 27.96 39.83 29 39.83ZM29 35C30.74 35 32 36.17 32 38C32 39.83 30.74 41 29 41C27.26 41 26 39.83 26 38C26 36.17 27.26 35 29 35ZM21.37 37.48H22.17C22.67 37.48 23.32 37.46 23.32 36.81C23.32 36.21 22.76 36.11 22.26 36.11H21.36V37.48H21.37ZM20 35H22.41C23.69 35 24.76 35.43 24.76 36.82C24.76 37.66 24.29 38.31 23.42 38.47L25 41H23.36L22.06 38.6H21.38V41H20V35ZM19 40.45C18.19 40.84 17.3 41 16.38 41C14.42 41 13 39.83 13 38C13 36.17 14.43 35 16.38 35C17.37 35 18.24 35.2 18.88 35.73L17.9 36.7C17.53 36.35 17.08 36.16 16.38 36.16C15.2 36.16 14.43 36.93 14.43 38C14.43 39.07 15.2 39.84 16.38 39.84C16.98 39.84 17.42 39.68 17.68 39.56V38.63H16.55V37.47H19V40.45ZM28.3 24L33.08 19.27C33.66 18.69 33.68 17.98 33.12 17.42C32.51 16.82 31.28 16.89 30.71 17.46L24.1 24L30.7 30.54C31.28 31.12 32.5 31.17 33.11 30.58C33.67 30.02 33.62 29.28 33.07 28.73L28.31 24H28.3Z" fill="#FEFEFE"/>
<path d="M19.06 17.04H12.36C11.51 17.04 11 17.7 11 18.5C11 19.3 11.5 20 12.36 20H17V29.67C17 30.51 17.68 31 18.5 31C19.31 31 20 30.5 20 29.67V20H24.67C25.52 20 26 19.29 26 18.49C26 17.69 25.52 17.03 24.67 17.03H19.06V17.04ZM41 18.34V22.5H34.58C33.73 22.5 33 23.2 33 24C33 24.8 33.73 25.5 34.58 25.5H41V29.67C41 30.51 41.68 31 42.5 31C43.32 31 44 30.5 44 29.67V18.33C44 17.49 43.32 17 42.5 17C41.68 17 41 17.5 41 18.33V18.34Z" fill="#1D1D1B"/>
</g>
<defs>
<clipPath id="clip0_4_17">
<rect width="56" height="56" fill="white"/>
</clipPath>
</defs>
</svg>
