<svg width="56" height="56" viewBox="0 0 56 56" fill="none" xmlns="http://www.w3.org/2000/svg">
<g clip-path="url(#clip0_4_11)">
<path d="M0 0H56V56H0V0Z" fill="#3266BC"/>
<path fill-rule="evenodd" clip-rule="evenodd" d="M28 12C36.8 12 44 19.2 44 28.01C44 36.81 36.8 44 28 44C19.2 44 12 36.82 12 28.01C12 19.2 19.2 12 28 12ZM17.29 19.4L23.03 34.3L25.13 29H30.64L32.74 34.3L38.54 19.23C37.5193 17.9936 36.2909 16.9446 34.91 16.13L30.88 27H25.2L21.16 16.09C19.68 16.94 18.37 18.07 17.29 19.41V19.4ZM40.86 23.15L34.32 40.2C37.3048 38.6476 39.618 36.0562 40.8228 32.915C42.0277 29.7739 42.0409 26.3003 40.86 23.15ZM31.47 41.3L31.43 40.95L27.88 31.76L24.33 40.96L24.32 41.24C26.6575 41.8822 29.1221 41.9029 31.47 41.3ZM21.4 40.05L15.03 23.45C13.9482 26.5227 13.9951 29.8801 15.1621 32.9215C16.3292 35.9629 18.5404 38.4897 21.4 40.05ZM28 14.27C29.2 14.27 30.39 14.42 31.52 14.72L28.05 24.32L24.55 14.7C25.65 14.42 26.81 14.27 28 14.27Z" fill="white"/>
</g>
<defs>
<clipPath id="clip0_4_11">
<rect width="56" height="56" fill="white"/>
</clipPath>
</defs>
</svg>
